<?xml version="1.0" encoding="UTF-8" standalone="no"?>
<!-- Created with Inkscape (http://www.inkscape.org/) -->

<svg
   xmlns:dc="http://purl.org/dc/elements/1.1/"
   xmlns:cc="http://creativecommons.org/ns#"
   xmlns:rdf="http://www.w3.org/1999/02/22-rdf-syntax-ns#"
   xmlns:svg="http://www.w3.org/2000/svg"
   xmlns="http://www.w3.org/2000/svg"
   xmlns:sodipodi="http://sodipodi.sourceforge.net/DTD/sodipodi-0.dtd"
   xmlns:inkscape="http://www.inkscape.org/namespaces/inkscape"
   width="210mm"
   height="297mm"
   viewBox="0 0 744.09448819 1052.3622047"
   id="svg2"
   version="1.1"
   inkscape:version="0.91 r13725"
   sodipodi:docname="tape.svg"
   inkscape:export-filename="/Users/KesieV/Downloads/tape.png"
   inkscape:export-xdpi="88.400002"
   inkscape:export-ydpi="88.400002">
  <defs
     id="defs4" />
  <sodipodi:namedview
     id="base"
     pagecolor="#ffffff"
     bordercolor="#666666"
     borderopacity="1.0"
     inkscape:pageopacity="0.0"
     inkscape:pageshadow="2"
     inkscape:zoom="2"
     inkscape:cx="403.75587"
     inkscape:cy="213.59397"
     inkscape:document-units="px"
     inkscape:current-layer="layer2"
     showgrid="false"
     inkscape:window-width="1680"
     inkscape:window-height="918"
     inkscape:window-x="-3"
     inkscape:window-y="1"
     inkscape:window-maximized="0" />
  <metadata
     id="metadata7">
    <rdf:RDF>
      <cc:Work
         rdf:about="">
        <dc:format>image/svg+xml</dc:format>
        <dc:type
           rdf:resource="http://purl.org/dc/dcmitype/StillImage" />
        <dc:title></dc:title>
      </cc:Work>
    </rdf:RDF>
  </metadata>
  <g
     inkscape:groupmode="layer"
     id="layer2"
     inkscape:label="Livello 2"
     style="display:inline">
    <rect
       style="opacity:1;fill:#333333;fill-opacity:1;fill-rule:nonzero;stroke:none;stroke-width:0.995;stroke-miterlimit:4;stroke-dasharray:none;stroke-opacity:1"
       id="rect4256"
       width="124.27402"
       height="48.61359"
       x="453.95758"
       y="875.56024"
       ry="0"
       transform="matrix(0.99863632,-0.05220635,0.05220635,0.99863632,0,0)" />
    <circle
       r="25.707218"
       cy="900.71222"
       cx="475.20093"
       id="circle4243"
       style="opacity:1;fill:#000000;fill-opacity:1;fill-rule:nonzero;stroke:none;stroke-width:0.83556014;stroke-miterlimit:4;stroke-dasharray:none;stroke-opacity:1"
       inkscape:export-filename="/Users/KesieV/Downloads/tape.png"
       inkscape:export-xdpi="90.959999"
       inkscape:export-ydpi="90.959999"
       transform="matrix(0.99863632,-0.05220635,0.05220635,0.99863632,0,0)" />
    <circle
       style="opacity:1;fill:#000000;fill-opacity:1;fill-rule:nonzero;stroke:none;stroke-width:0.83556014;stroke-miterlimit:4;stroke-dasharray:none;stroke-opacity:1"
       id="circle4241"
       cx="554.30804"
       cy="900.71222"
       r="37.314362"
       inkscape:export-filename="/Users/KesieV/Downloads/tape.png"
       inkscape:export-xdpi="90.959999"
       inkscape:export-ydpi="90.959999"
       transform="matrix(0.99863632,-0.05220635,0.05220635,0.99863632,0,0)" />
    <circle
       r="14.100077"
       cy="900.71228"
       cx="554.30804"
       id="circle4239"
       style="opacity:1;fill:#ffffff;fill-opacity:1;fill-rule:nonzero;stroke:none;stroke-width:0.83556014;stroke-miterlimit:4;stroke-dasharray:none;stroke-opacity:1"
       inkscape:export-filename="/Users/KesieV/Downloads/tape.png"
       inkscape:export-xdpi="90.959999"
       inkscape:export-ydpi="90.959999"
       transform="matrix(0.99863632,-0.05220635,0.05220635,0.99863632,0,0)" />
    <path
       style="opacity:1;fill:#333333;fill-opacity:1;fill-rule:nonzero;stroke:#333333;stroke-width:0.995;stroke-miterlimit:4;stroke-dasharray:none;stroke-opacity:0.94117647"
       d="m 469.36774,936.40937 2.45502,8.94208 184.27399,-9.38306 1.71629,-9.73676 z"
       id="path4251"
       inkscape:connector-curvature="0"
       sodipodi:nodetypes="ccccc"
       inkscape:export-filename="/Users/KesieV/Downloads/tape.png"
       inkscape:export-xdpi="90.959999"
       inkscape:export-ydpi="90.959999" />
    <path
       style="opacity:1;fill:#cccccc;fill-opacity:1;fill-rule:nonzero;stroke:#333333;stroke-width:0.995;stroke-miterlimit:4;stroke-dasharray:none;stroke-opacity:0.94117647"
       d="m 465.66383,822.78818 c -1.28432,0.0671 -2.26501,1.15603 -2.19787,2.44034 l 5.80826,111.10414 c 0.0671,1.28432 1.15592,2.26305 2.44024,2.19591 l 184.0397,-9.62116 c 1.28431,-0.0671 2.26316,-1.15396 2.19602,-2.43828 l -5.80826,-111.10414 c -0.0672,-1.28432 -1.15408,-2.26511 -2.4384,-2.19797 l -184.03969,9.62116 z m 42.37451,34.08818 103.78795,-5.42579 c 2.56865,-0.13428 4.74434,1.82523 4.87863,4.39388 l 1.37969,26.39169 c 0.13428,2.56863 -1.82523,4.74434 -4.39388,4.87862 l -103.78795,5.42579 c -2.56864,0.13428 -4.74434,-1.82525 -4.87862,-4.39388 l -1.3797,-26.39169 c -0.13428,-2.56864 1.82524,-4.74434 4.39388,-4.87862 z"
       id="rect4213"
       inkscape:connector-curvature="0"
       inkscape:export-filename="/Users/KesieV/Downloads/tape.png"
       inkscape:export-xdpi="90.959999"
       inkscape:export-ydpi="90.959999" />
    <circle
       style="opacity:1;fill:#ffffff;fill-opacity:1;fill-rule:nonzero;stroke:none;stroke-width:0.83556014;stroke-miterlimit:4;stroke-dasharray:none;stroke-opacity:1"
       id="path4237"
       cx="475.20093"
       cy="900.71228"
       r="14.100077"
       inkscape:export-filename="/Users/KesieV/Downloads/tape.png"
       inkscape:export-xdpi="90.959999"
       inkscape:export-ydpi="90.959999"
       transform="matrix(0.99863632,-0.05220635,0.05220635,0.99863632,0,0)" />
    <path
       style="opacity:1;fill:#ffffff;fill-opacity:1;fill-rule:nonzero;stroke:none;stroke-width:0.995;stroke-miterlimit:4;stroke-dasharray:none;stroke-opacity:1"
       d="m 478.78683,831.72268 c -1.28432,0.0671 -2.26501,1.15603 -2.19787,2.44034 l 3.55993,68.09646 c 0.0671,1.28432 1.15592,2.26305 2.44023,2.19591 l 161.66011,-8.45121 c 1.28432,-0.0671 2.26315,-1.15396 2.19601,-2.43828 l -3.55992,-68.09646 c -0.0671,-1.28432 -1.15407,-2.26511 -2.43838,-2.19797 l -161.66011,8.45121 z m 29.70947,24.82268 102.5182,-5.35941 c 2.89871,-0.15154 5.35512,2.0608 5.50666,4.95951 l 1.33554,25.54714 c 0.15154,2.89872 -2.06079,5.35513 -4.95951,5.50667 l -102.5182,5.35941 c -2.89873,0.15154 -5.35319,-2.06091 -5.50472,-4.95962 l -1.33555,-25.54714 c -0.15154,-2.89872 2.05885,-5.35502 4.95758,-5.50656 z"
       id="rect4245"
       inkscape:export-filename="/Users/KesieV/Downloads/tape.png"
       inkscape:export-xdpi="90.959999"
       inkscape:export-ydpi="90.959999"
       inkscape:connector-curvature="0" />
  </g>
</svg>
