<?xml version="1.0" encoding="UTF-8" standalone="no"?>
<!-- Created with Inkscape (http://www.inkscape.org/) -->

<svg
   xmlns:dc="http://purl.org/dc/elements/1.1/"
   xmlns:cc="http://creativecommons.org/ns#"
   xmlns:rdf="http://www.w3.org/1999/02/22-rdf-syntax-ns#"
   xmlns:svg="http://www.w3.org/2000/svg"
   xmlns="http://www.w3.org/2000/svg"
   xmlns:xlink="http://www.w3.org/1999/xlink"
   xmlns:sodipodi="http://sodipodi.sourceforge.net/DTD/sodipodi-0.dtd"
   xmlns:inkscape="http://www.inkscape.org/namespaces/inkscape"
   width="210mm"
   height="297mm"
   viewBox="0 0 744.09448819 1052.3622047"
   id="svg2"
   version="1.1"
   inkscape:version="0.91 r13725"
   sodipodi:docname="gamatochi.svg"
   inkscape:export-filename="/Users/KesieV/Desktop/htdocs/wright-dev/tapes/gamatochi/body-delme.png"
   inkscape:export-xdpi="95.5"
   inkscape:export-ydpi="95.5">
  <defs
     id="defs4">
    <inkscape:perspective
       sodipodi:type="inkscape:persp3d"
       inkscape:vp_x="0 : 526.1811 : 1"
       inkscape:vp_y="0 : 1000 : 0"
       inkscape:vp_z="744.09449 : 526.1811 : 1"
       inkscape:persp3d-origin="372.04724 : 350.7874 : 1"
       id="perspective4376" />
    <inkscape:path-effect
       effect="skeletal"
       id="path-effect4372"
       is_visible="true"
       pattern="M 0,5 C 0,2.24 2.24,0 5,0 7.76,0 10,2.24 10,5 10,7.76 7.76,10 5,10 2.24,10 0,7.76 0,5 Z"
       copytype="single_stretched"
       prop_scale="1"
       scale_y_rel="false"
       spacing="0"
       normal_offset="0"
       tang_offset="0"
       prop_units="false"
       vertical_pattern="false"
       fuse_tolerance="0" />
    <linearGradient
       inkscape:collect="always"
       id="linearGradient4214">
      <stop
         style="stop-color:#ffffff;stop-opacity:1"
         offset="0"
         id="stop4216" />
      <stop
         style="stop-color:#ff0000;stop-opacity:1"
         offset="1"
         id="stop4218" />
    </linearGradient>
    <linearGradient
       id="linearGradient4184"
       inkscape:collect="always">
      <stop
         id="stop4186"
         offset="0"
         style="stop-color:#000000;stop-opacity:0.4273859" />
      <stop
         id="stop4188"
         offset="1"
         style="stop-color:#000000;stop-opacity:0" />
    </linearGradient>
    <linearGradient
       id="linearGradient4178"
       inkscape:collect="always">
      <stop
         id="stop4180"
         offset="0"
         style="stop-color:#000000;stop-opacity:0.4273859" />
      <stop
         id="stop4182"
         offset="1"
         style="stop-color:#000000;stop-opacity:0" />
    </linearGradient>
    <linearGradient
       inkscape:collect="always"
       id="linearGradient4158">
      <stop
         style="stop-color:#ffffff;stop-opacity:1"
         offset="0"
         id="stop5641" />
      <stop
         style="stop-color:#ffffff;stop-opacity:0"
         offset="1"
         id="stop5643" />
    </linearGradient>
    <radialGradient
       inkscape:collect="always"
       xlink:href="#linearGradient4158"
       id="radialGradient5645"
       cx="-154.0266"
       cy="252.66904"
       fx="-154.0266"
       fy="252.66904"
       r="148.79225"
       gradientTransform="matrix(0.22958135,0.26119296,-0.72793538,0.63983494,120.2914,51.178305)"
       gradientUnits="userSpaceOnUse" />
    <radialGradient
       inkscape:collect="always"
       xlink:href="#linearGradient4178"
       id="radialGradient4162"
       gradientUnits="userSpaceOnUse"
       gradientTransform="matrix(-0.2252563,-0.232412,0.48611305,-0.47114608,65.346438,692.95746)"
       cx="668.6344"
       cy="308.2619"
       fx="668.6344"
       fy="308.26193"
       r="148.79225" />
    <radialGradient
       inkscape:collect="always"
       xlink:href="#linearGradient4184"
       id="radialGradient4176"
       cx="98.328682"
       cy="487.452"
       fx="98.328697"
       fy="487.452"
       r="144.81485"
       gradientTransform="matrix(-0.23144293,-0.23879542,0.49946431,-0.48408626,-156.12494,651.77167)"
       gradientUnits="userSpaceOnUse" />
    <radialGradient
       inkscape:collect="always"
       xlink:href="#linearGradient4214"
       id="radialGradient4220"
       cx="-88.39286"
       cy="419.68362"
       fx="-88.39286"
       fy="419.68362"
       r="13.535714"
       gradientUnits="userSpaceOnUse"
       gradientTransform="matrix(0.55145111,0.60686017,-0.74008571,0.67251256,270.95333,191.08322)" />
    <radialGradient
       inkscape:collect="always"
       xlink:href="#linearGradient4214"
       id="radialGradient4251"
       gradientUnits="userSpaceOnUse"
       gradientTransform="matrix(0.55145111,0.60686017,-0.74008571,0.67251256,327.73904,198.58681)"
       cx="-88.39286"
       cy="419.68362"
       fx="-88.39286"
       fy="419.68362"
       r="13.535714" />
    <radialGradient
       inkscape:collect="always"
       xlink:href="#linearGradient4214"
       id="radialGradient4255"
       gradientUnits="userSpaceOnUse"
       gradientTransform="matrix(0.55145111,0.60686017,-0.74008571,0.67251256,384.16761,190.72607)"
       cx="-88.39286"
       cy="419.68362"
       fx="-88.39286"
       fy="419.68362"
       r="13.535714" />
    <radialGradient
       inkscape:collect="always"
       xlink:href="#linearGradient4214"
       id="radialGradient4259"
       gradientUnits="userSpaceOnUse"
       gradientTransform="matrix(0.55145111,0.60686017,-0.74008571,0.67251256,270.95333,190.36893)"
       cx="-88.39286"
       cy="419.68362"
       fx="-88.39286"
       fy="419.68362"
       r="13.535714" />
  </defs>
  <sodipodi:namedview
     id="base"
     pagecolor="#ffffff"
     bordercolor="#666666"
     borderopacity="1.0"
     inkscape:pageopacity="0.0"
     inkscape:pageshadow="2"
     inkscape:zoom="1.4142136"
     inkscape:cx="-141.95802"
     inkscape:cy="680.62419"
     inkscape:document-units="px"
     inkscape:current-layer="svg2"
     showgrid="false"
     inkscape:window-width="1920"
     inkscape:window-height="1031"
     inkscape:window-x="0"
     inkscape:window-y="1"
     inkscape:window-maximized="1" />
  <metadata
     id="metadata7">
    <rdf:RDF>
      <cc:Work
         rdf:about="">
        <dc:format>image/svg+xml</dc:format>
        <dc:type
           rdf:resource="http://purl.org/dc/dcmitype/StillImage" />
        <dc:title />
      </cc:Work>
    </rdf:RDF>
  </metadata>
  <g
     style="display:none"
     inkscape:label="BODYOUTLINE"
     id="g4449"
     inkscape:groupmode="layer">
    <path
       inkscape:connector-curvature="0"
       id="path4451"
       d="m -30.013672,101.21094 c -14.579903,-0.27232 -19.271484,16.15039 -19.271484,16.15039 0,0 -46.072269,8.21541 -78.572264,46.42969 -32.5,38.21429 -40.35742,76.07031 -40.35742,76.07031 -26.70106,97.70933 3.38672,202.70543 118.929684,224.64453 5.449487,0.32606 12.363753,1.87006 19.816406,1.63281 105.696528,-1.4432 146.46327,-91.26558 148.75391,-154.84765 0.49224,-63.84249 -16.89417,-111.61122 -60.000004,-158.57227 0,0 -34.641741,-32.14174 -68.5703122,-36.07031 0,0 -3.5728238,-13.92884 -19.2871098,-15.35742 -0.491071,-0.0447 -0.971086,-0.0713 -1.441406,-0.0801 z m 0.90625,11.50781 a 9.8214283,9.2857141 0 0 1 9.822266,9.28711 9.8214283,9.2857141 0 0 1 -9.822266,9.28516 9.8214283,9.2857141 0 0 1 -9.820312,-9.28516 9.8214283,9.2857141 0 0 1 9.820312,-9.28711 z"
       style="display:inline;fill:#ffffff;fill-opacity:0;fill-rule:nonzero;stroke:#000000;stroke-width:1;stroke-miterlimit:4;stroke-dasharray:none;stroke-opacity:1" />
  </g>
  <g
     inkscape:groupmode="layer"
     id="layer5"
     inkscape:label="Body"
     style="display:inline"
     sodipodi:insensitive="true">
    <path
       style="display:inline;fill:#ffff00;fill-opacity:1;fill-rule:nonzero;stroke:#000000;stroke-width:1;stroke-miterlimit:4;stroke-dasharray:none;stroke-opacity:1"
       d="m -30.013672,101.21094 c -14.579903,-0.27232 -19.271484,16.15039 -19.271484,16.15039 0,0 -46.072269,8.21541 -78.572264,46.42969 -32.5,38.21429 -40.35742,76.07031 -40.35742,76.07031 -26.70106,97.70933 3.38672,202.70543 118.929684,224.64453 5.449487,0.32606 12.363753,1.87006 19.816406,1.63281 105.696528,-1.4432 146.46327,-91.26558 148.75391,-154.84765 0.49224,-63.84249 -16.89417,-111.61122 -60.000004,-158.57227 0,0 -34.641741,-32.14174 -68.5703122,-36.07031 0,0 -3.5728238,-13.92884 -19.2871098,-15.35742 -0.491071,-0.0447 -0.971086,-0.0713 -1.441406,-0.0801 z m 0.90625,11.50781 a 9.8214283,9.2857141 0 0 1 9.822266,9.28711 9.8214283,9.2857141 0 0 1 -9.822266,9.28516 9.8214283,9.2857141 0 0 1 -9.820312,-9.28516 9.8214283,9.2857141 0 0 1 9.820312,-9.28711 z"
       id="path4147"
       inkscape:connector-curvature="0" />
  </g>
  <g
     style="display:inline"
     inkscape:label="Body copia"
     id="g4284"
     inkscape:groupmode="layer"
     sodipodi:insensitive="true">
    <path
       inkscape:connector-curvature="0"
       id="path4286"
       d="m -30.013672,101.21094 c -14.579903,-0.27232 -19.271484,16.15039 -19.271484,16.15039 0,0 -46.072269,8.21541 -78.572264,46.42969 -32.5,38.21429 -40.35742,76.07031 -40.35742,76.07031 -26.70106,97.70933 3.38672,202.70543 118.929684,224.64453 5.449487,0.32606 12.363753,1.87006 19.816406,1.63281 105.696528,-1.4432 146.46327,-91.26558 148.75391,-154.84765 0.49224,-63.84249 -16.89417,-111.61122 -60.000004,-158.57227 0,0 -34.641741,-32.14174 -68.5703122,-36.07031 0,0 -3.5728238,-13.92884 -19.2871098,-15.35742 -0.491071,-0.0447 -0.971086,-0.0713 -1.441406,-0.0801 z m 0.90625,11.50781 a 9.8214283,9.2857141 0 0 1 9.822266,9.28711 9.8214283,9.2857141 0 0 1 -9.822266,9.28516 9.8214283,9.2857141 0 0 1 -9.820312,-9.28516 9.8214283,9.2857141 0 0 1 9.820312,-9.28711 z"
       style="display:inline;fill:url(#radialGradient5645);fill-opacity:1;fill-rule:nonzero;stroke:#000000;stroke-width:1;stroke-miterlimit:4;stroke-dasharray:none;stroke-opacity:1" />
  </g>
  <g
     inkscape:groupmode="layer"
     id="layer2"
     inkscape:label="Body-shade"
     style="display:inline"
     sodipodi:insensitive="true">
    <path
       style="fill:url(#radialGradient4162);fill-opacity:1;fill-rule:nonzero;stroke:url(#radialGradient4176);stroke-width:1;stroke-miterlimit:4;stroke-dasharray:none;stroke-opacity:1"
       d="m -30.513672,97.195312 c -10.02096,-0.07035 -18.420538,7.807858 -21.861328,16.759768 -50.28416,11.25518 -91.21562,50.72705 -110.13867,97.90625 -20.41088,47.91305 -24.83997,103.11955 -9.92851,153.19754 12.22425,38.47067 40.19764,71.99286 77.061321,88.97629 46.63638,23.14858 105.0070042,15.671 148.394083,-14.00607 C 94.55637,412.03482 114.64229,372.714 118.33284,323.55259 123.8347,258.33503 103.06862,185.62868 53.130533,142.54303 36.001531,128.18165 15.616,117.29927 -6.40625,112.89844 -10.310119,103.46978 -20.306556,96.939711 -30.513672,97.195312 Z m 2.105469,19.466798 c 6.691434,-0.0512 6.153395,12.46277 -0.951172,10.72461 -5.535279,-0.0641 -7.868224,-8.33538 -2.210937,-10.16992 0.993755,-0.42776 2.086634,-0.57609 3.162109,-0.55469 z"
       id="path4160"
       inkscape:connector-curvature="0"
       sodipodi:nodetypes="cccccccccccccc" />
  </g>
  <g
     inkscape:groupmode="layer"
     id="layer3"
     inkscape:label="Buttons"
     style="display:inline"
     sodipodi:insensitive="true">
    <circle
       style="fill:url(#radialGradient4220);fill-opacity:1;fill-rule:nonzero;stroke:#000000;stroke-width:1;stroke-miterlimit:4;stroke-dasharray:none;stroke-opacity:1"
       id="path4155"
       cx="-85.178574"
       cy="426.82648"
       r="13.035714" />
    <circle
       style="fill:none;fill-opacity:1;fill-rule:nonzero;stroke:#000000;stroke-width:1;stroke-miterlimit:4;stroke-dasharray:none;stroke-opacity:1"
       id="path4155-7"
       cx="-28.214289"
       cy="435.21933"
       r="13.035714" />
    <circle
       r="13.035714"
       cy="427.36218"
       cx="27.85714"
       id="circle4172"
       style="fill:none;fill-opacity:1;fill-rule:nonzero;stroke:#000000;stroke-width:1;stroke-miterlimit:4;stroke-dasharray:none;stroke-opacity:1" />
    <circle
       r="13.035714"
       cy="434.33008"
       cx="-28.392859"
       id="circle4249"
       style="fill:url(#radialGradient4251);fill-opacity:1;fill-rule:nonzero;stroke:#000000;stroke-width:1;stroke-miterlimit:4;stroke-dasharray:none;stroke-opacity:1" />
    <circle
       style="fill:url(#radialGradient4255);fill-opacity:1;fill-rule:nonzero;stroke:#000000;stroke-width:1;stroke-miterlimit:4;stroke-dasharray:none;stroke-opacity:1"
       id="circle4253"
       cx="28.035713"
       cy="426.46933"
       r="13.035714" />
    <circle
       r="13.035714"
       cy="426.11218"
       cx="-85.178574"
       id="circle4257"
       style="fill:url(#radialGradient4259);fill-opacity:1;fill-rule:nonzero;stroke:#000000;stroke-width:1;stroke-miterlimit:4;stroke-dasharray:none;stroke-opacity:1" />
  </g>
  <g
     inkscape:groupmode="layer"
     id="layer4"
     inkscape:label="Display background"
     style="display:inline"
     sodipodi:insensitive="true">
    <rect
       style="opacity:0.72899996;fill:#ffffff;fill-opacity:1;fill-rule:nonzero;stroke:none;stroke-width:1;stroke-miterlimit:4;stroke-dasharray:none;stroke-opacity:1"
       id="rect4151"
       width="155.05841"
       height="145.96704"
       x="-106.57109"
       y="222.01682"
       ry="12.626906" />
  </g>
  <g
     inkscape:groupmode="layer"
     id="layer6"
     inkscape:label="Display content"
     style="display:inline;opacity:0.21799999"
     sodipodi:insensitive="true">
    <rect
       style="opacity:1;fill:#ff00ff;fill-opacity:0.99170125;fill-rule:nonzero;stroke:none;stroke-width:1;stroke-miterlimit:4;stroke-dasharray:none;stroke-opacity:1"
       id="rect4293"
       width="154.28033"
       height="83.323212"
       x="-106.28033"
       y="252.03897"
       ry="0" />
    <ellipse
       style="opacity:1;fill:#ff00ff;fill-opacity:0.99170125;fill-rule:nonzero;stroke:none;stroke-width:1;stroke-miterlimit:4;stroke-dasharray:none;stroke-opacity:1"
       id="path4295"
       cx="-44.375"
       cy="236.6122"
       rx="11.375"
       ry="11.5" />
    <path
       sodipodi:type="star"
       style="opacity:1;fill:#00ff00;fill-opacity:0.99170125;fill-rule:nonzero;stroke:none;stroke-width:1;stroke-miterlimit:4;stroke-dasharray:none;stroke-opacity:1"
       id="path4299"
       sodipodi:sides="5"
       sodipodi:cx="-48.75"
       sodipodi:cy="352.11221"
       sodipodi:r1="14.075688"
       sodipodi:r2="7.0378442"
       sodipodi:arg1="-0.58307654"
       sodipodi:arg2="0.045241991"
       inkscape:flatsided="false"
       inkscape:rounded="0"
       inkscape:randomized="0"
       d="m -37,344.36221 -4.719357,8.0683 3.970995,8.46174 -9.131769,-1.99514 -6.820483,6.39146 -0.924386,-9.30136 -8.186285,-4.51159 8.560466,-3.75342 1.761081,-9.17978 6.215045,6.98161 z"
       inkscape:transform-center-x="1.1556427"
       inkscape:transform-center-y="-0.19671868" />
    <path
       sodipodi:type="star"
       style="opacity:1;fill:#00ff00;fill-opacity:0.99170125;fill-rule:nonzero;stroke:none;stroke-width:1;stroke-miterlimit:4;stroke-dasharray:none;stroke-opacity:1"
       id="path4301"
       sodipodi:sides="3"
       sodipodi:cx="28"
       sodipodi:cy="237.8622"
       sodipodi:r1="13.532369"
       sodipodi:r2="12.181569"
       sodipodi:arg1="0.43885929"
       sodipodi:arg2="1.4860568"
       inkscape:flatsided="false"
       inkscape:rounded="0"
       inkscape:randomized="0"
       d="m 40.25,243.6122 -11.218975,6.38786 -12.135671,-4.40405 0.07744,-12.90985 9.881853,-8.30777 11.141535,6.52198 z"
       inkscape:transform-center-x="1.9800566"
       inkscape:transform-center-y="-0.36142299" />
    <path
       sodipodi:type="star"
       style="opacity:1;fill:#00ff00;fill-opacity:0.99170125;fill-rule:nonzero;stroke:none;stroke-width:1;stroke-miterlimit:4;stroke-dasharray:none;stroke-opacity:1"
       id="path4303"
       sodipodi:sides="8"
       sodipodi:cx="-83.5"
       sodipodi:cy="237.8622"
       sodipodi:r1="12.963892"
       sodipodi:r2="11.669836"
       sodipodi:arg1="0.68980004"
       sodipodi:arg2="1.0824991"
       inkscape:flatsided="false"
       inkscape:rounded="0"
       inkscape:randomized="0"
       d="m -73.5,246.1122 -4.525414,2.05601 -4.237149,2.59869 -4.653774,-1.74613 -4.833663,-1.15857 -2.056017,-4.52542 -2.598682,-4.23715 1.746128,-4.65377 1.158571,-4.83366 4.525414,-2.05602 4.237149,-2.59868 4.653774,1.74613 4.833663,1.15857 2.056017,4.52541 2.598682,4.23715 -1.746128,4.65378 z"
       inkscape:transform-center-x="0.60614246"
       inkscape:transform-center-y="-0.63811203" />
    <path
       sodipodi:type="spiral"
       style="fill:none;fill-rule:evenodd;stroke:#ff00ff;stroke-width:1px;stroke-linecap:butt;stroke-linejoin:miter;stroke-opacity:1"
       id="path4305"
       sodipodi:cx="-12.75"
       sodipodi:cy="350.61221"
       sodipodi:expansion="1"
       sodipodi:revolution="3"
       sodipodi:radius="12.093387"
       sodipodi:argument="-18.725201"
       sodipodi:t0="0"
       d="m -12.75,350.61221 c 0.601661,0.0752 0.19546,0.84813 -0.125,1 -0.868427,0.41156 -1.725228,-0.44439 -1.875,-1.25 -0.267906,-1.44103 1.01844,-2.63475 2.375001,-2.75 1.990807,-0.16912 3.5612591,1.59667 3.6249989,3.5 0.084955,2.53685 -2.1758999,4.4944 -4.6250009,4.5 -3.081945,0.007 -5.430845,-2.7555 -5.374999,-5.75 0.06764,-3.62674 3.335287,-6.36919 6.875002,-6.25 4.1714312,0.14046 7.3087142,3.91519 7.1249977,8.00001 -0.2121079,4.71608 -4.4951528,8.24903 -9.1250017,7.99999 -5.26073,-0.28297 -9.189907,-5.07517 -8.874998,-10.25 0.353281,-5.80537 5.655239,-10.13118 11.375003,-9.75 6.3500226,0.42319 11.07276182,6.23533 10.62499662,12.50001" />
    <path
       sodipodi:type="star"
       style="opacity:1;fill:#0000ff;fill-opacity:0.99170125;fill-rule:nonzero;stroke:none;stroke-width:1;stroke-miterlimit:4;stroke-dasharray:none;stroke-opacity:1"
       id="path4307"
       sodipodi:sides="10"
       sodipodi:cx="-85.75"
       sodipodi:cy="351.11221"
       sodipodi:r1="11.715375"
       sodipodi:r2="10.545946"
       sodipodi:arg1="0.69473828"
       sodipodi:arg2="1.0088975"
       inkscape:flatsided="false"
       inkscape:rounded="0"
       inkscape:randomized="0"
       d="m -76.75,358.61221 -3.381183,1.42446 -2.746053,2.43324 -3.572708,-0.835 -3.651827,0.35444 -2.399579,-2.77552 -3.162727,-1.85974 -0.309893,-3.65587 -1.465573,-3.36357 1.898162,-3.13981 0.791381,-3.58263 3.381183,-1.42445 2.746053,-2.43324 3.572708,0.835 3.651827,-0.35444 2.399579,2.77551 3.162727,1.85974 0.309893,3.65588 1.465573,3.36356 -1.898162,3.13982 z" />
    <path
       sodipodi:type="star"
       style="opacity:1;fill:#0000ff;fill-opacity:0.99170125;fill-rule:nonzero;stroke:none;stroke-width:1;stroke-miterlimit:4;stroke-dasharray:none;stroke-opacity:1"
       id="path4309"
       sodipodi:sides="4"
       sodipodi:cx="-9.75"
       sodipodi:cy="237.8622"
       sodipodi:r1="12.394555"
       sodipodi:r2="11.1551"
       sodipodi:arg1="0.84247895"
       sodipodi:arg2="1.6278771"
       inkscape:flatsided="false"
       inkscape:rounded="0"
       inkscape:randomized="0"
       d="M -1.5000001,247.1122 -10.386396,248.99913 -19,246.1122 -20.886932,237.2258 -18,228.6122 l 8.886396,-1.88693 8.61360391,2.88693 1.88693199,8.88639 z" />
    <path
       sodipodi:type="star"
       style="opacity:1;fill:#0000ff;fill-opacity:0.99170125;fill-rule:nonzero;stroke:none;stroke-width:1;stroke-miterlimit:4;stroke-dasharray:none;stroke-opacity:1"
       id="path4311"
       sodipodi:sides="4"
       sodipodi:cx="27.25"
       sodipodi:cy="350.86221"
       sodipodi:r1="10.253048"
       sodipodi:r2="9.2277431"
       sodipodi:arg1="1.5951817"
       sodipodi:arg2="2.3805799"
       inkscape:flatsided="false"
       inkscape:rounded="0"
       inkscape:randomized="0"
       d="M 27,361.11221 20.567841,357.22617 17,350.61221 20.886039,344.18005 27.5,340.61221 l 6.432159,3.88604 3.567841,6.61396 -3.886039,6.43216 z" />
    <rect
       style="opacity:0.72899996;fill:#ff9955;fill-opacity:1;fill-rule:nonzero;stroke:#ff00ff;stroke-width:1;stroke-miterlimit:4;stroke-dasharray:none;stroke-opacity:1"
       id="rect4342"
       width="47.5"
       height="39.75"
       x="-118.75"
       y="271.36221"
       ry="12.6269" />
    <path
       style="opacity:0.72899996;fill:#ff9955;fill-opacity:1;fill-rule:nonzero;stroke:#ff00ff;stroke-width:1;stroke-miterlimit:4;stroke-dasharray:none;stroke-opacity:1"
       d="m -2.1230469,263.11133 c -6.9953024,0 -12.6269531,5.63165 -12.6269531,12.62695 l 0,14.00391 c -1.432828,-0.562 -2.990117,-0.88086 -4.626953,-0.88086 l -22.246094,0 c -6.995302,0 -12.626953,5.63165 -12.626953,12.62695 l 0,14.4961 c 0,6.9953 5.631651,12.62695 12.626953,12.62695 l 22.246094,0 c 6.995302,0 12.626953,-5.63165 12.626953,-12.62695 l 0,-14.00196 c 1.4328282,0.562 2.9901171,0.87891 4.6269531,0.87891 l 22.2460939,0 c 6.995302,0 12.626953,-5.63165 12.626953,-12.62695 l 0,-14.4961 c 0,-6.9953 -5.631651,-12.62695 -12.626953,-12.62695 l -22.2460939,0 z"
       id="rect4344"
       inkscape:connector-curvature="0" />
    <rect
       ry="10.876892"
       y="254.11221"
       x="44.25"
       height="38.25"
       width="7.5"
       id="rect4348"
       style="opacity:0.72899996;fill:#ff9955;fill-opacity:1;fill-rule:nonzero;stroke:#ff00ff;stroke-width:1;stroke-miterlimit:4;stroke-dasharray:none;stroke-opacity:1" />
  </g>
  <g
     style="display:inline"
     inkscape:label="Display upper"
     id="g4313"
     inkscape:groupmode="layer"
     sodipodi:insensitive="true">
    <path
       style="fill:#ff0000;fill-opacity:1;fill-rule:nonzero;stroke:#000000;stroke-width:1;stroke-miterlimit:4;stroke-dasharray:none;stroke-opacity:1"
       d="m -51.427734,204.50586 -23.214844,15 -34.285152,-6.07227 -6.42969,47.5 -15,49.64258 17.14258,30.35742 -1.42774,25 28.214846,17.14258 25.355468,-7.85742 28.214844,18.21484 31.7851564,-18.92773 41.4296876,7.14258 14.335937,-28.50196 19.234375,-47.21289 -20.71289,-37.14257 8.570312,-33.57227 -35,-26.78516 -24.9999998,11.42774 -53.2128902,-15.35547 z m -42.515625,17.51172 129.804687,0 c 6.995306,0 12.626953,5.63165 12.626953,12.62695 l 0,120.71289 c 0,6.99531 -5.631647,12.62695 -12.626953,12.62696 l -129.804687,0 c -6.995311,0 -12.626951,-5.63165 -12.626951,-12.62696 l 0,-120.71289 c 0,-6.9953 5.63164,-12.62695 12.626951,-12.62695 z"
       id="path4315"
       inkscape:connector-curvature="0" />
    <path
       inkscape:connector-curvature="0"
       id="path4319"
       d="m -176.95347,316.79437 46.31549,-6.36396"
       style="opacity:1;fill:none;fill-opacity:0.99170125;fill-rule:nonzero;stroke:#000000;stroke-width:1;stroke-miterlimit:4;stroke-dasharray:none;stroke-opacity:1" />
    <path
       inkscape:connector-curvature="0"
       id="path4321"
       d="M 119.375,311.4872 74,305.3622"
       style="opacity:1;fill:none;fill-opacity:0.99170125;fill-rule:nonzero;stroke:#000000;stroke-width:1;stroke-miterlimit:4;stroke-dasharray:none;stroke-opacity:1" />
  </g>
  <g
     inkscape:groupmode="layer"
     id="layer7"
     inkscape:label="icone"
     style="display:inline;opacity:1">
    <g
       id="g4521">
      <path
         inkscape:connector-curvature="0"
         id="path4388"
         d="m -91.780436,351.33903 -0.687893,7.72556 2.698655,1.64036 1.957847,-0.6879 0.211657,-3.75694 -1.375779,-4.12735 1.799099,-2.22243 0.687893,-1.69327 -0.05292,-5.55605 -0.952465,-0.47623 -0.634977,0.3704 -0.105832,4.2861 -1.111207,0.21165 -0.158747,-0.42331 -0.05292,-4.07444 -0.952465,-0.52915 -0.687887,0.42332 -0.05292,4.23319 -0.84664,-0.63498 -0.317488,-3.01614 -0.740803,-0.89955 -1.217044,0.84663 0.370404,5.92646 z"
         style="opacity:1;fill:#000000;fill-opacity:1;fill-rule:nonzero;stroke:none;stroke-width:1;stroke-miterlimit:4;stroke-dasharray:none;stroke-opacity:1" />
      <path
         inkscape:connector-curvature="0"
         id="path4390"
         d="m -78.657575,342.50227 0.634977,16.72106 -1.005375,1.21704 -2.857403,0.10583 0.158747,-5.50314 -2.751565,-1.69326 1.322864,-8.2018 1.217044,-2.85739 1.852015,-0.52915 1.058298,0.0529 z"
         style="opacity:1;fill:#000000;fill-opacity:1;fill-rule:nonzero;stroke:none;stroke-width:1;stroke-miterlimit:4;stroke-dasharray:none;stroke-opacity:1" />
    </g>
    <g
       id="g4438"
       transform="matrix(0.59866221,0,0,0.59866221,-216.53777,271.28883)"
       style="opacity:1;fill:#000000;fill-opacity:1">
      <path
         id="path4396"
         d="m 408.125,118.54883 -1.1875,0.1875 -0.9375,1.5 0.4375,2.6875 -13.9375,9.75 1.5,6.375 -3.4375,3.375 -0.3125,1.875 2.375,0.0625 3.4375,-2.25 1.1875,2.3125 2.1875,0.8125 3.625,-0.3125 c 0,0 11.8125,-7.1875 11.9375,-7.4375 0.125,-0.25 1.9375,1.125 1.9375,1.125 l 2.1875,-0.4375 0.375,-1.4375 -11.375,-18.1875 z m -0.47852,6.70703 2.1211,0.70898 4.77344,9.10352 -3.62305,2.47461 -3.71289,1.23633 -3.88867,-4.33008 -1.67969,-4.50781 6.00976,-4.68555 z"
         style="opacity:1;fill:#000000;fill-opacity:1;fill-rule:nonzero;stroke:none;stroke-width:1;stroke-miterlimit:4;stroke-dasharray:none;stroke-opacity:1"
         inkscape:connector-curvature="0" />
      <path
         inkscape:connector-curvature="0"
         id="path4398"
         d="m 413.25,122.1747 5.5,8.375 2.5,0.9375 1,-1.1875 -1.1875,-2.5625 -4.75,-7.75 -1.6875,-0.6875 -1.25,1.3125 z"
         style="opacity:1;fill:#000000;fill-opacity:1;fill-rule:nonzero;stroke:none;stroke-width:1;stroke-miterlimit:4;stroke-dasharray:none;stroke-opacity:1" />
      <path
         inkscape:connector-curvature="0"
         id="path4400"
         d="m 416.375,116.9872 9.1875,14.0625 2.75,0.4375 1.0625,-1.25 -0.5625,-2.875 -8.125,-12.625 -2.8125,-0.9375 -1.625,1.375 -0.125,1.625 z"
         style="opacity:1;fill:#000000;fill-opacity:1;fill-rule:nonzero;stroke:none;stroke-width:1;stroke-miterlimit:4;stroke-dasharray:none;stroke-opacity:1" />
    </g>
    <g
       id="g4443"
       transform="matrix(0.59866221,0,0,0.59866221,-208.03777,273.78883)"
       style="opacity:1;fill:#000000;fill-opacity:1">
      <path
         inkscape:connector-curvature="0"
         id="path4392"
         d="m 318.55161,135.15632 14.14213,-13.70019 6.62913,-5.21492 3.0052,-0.88388 3.62392,0.44194 1.50261,2.82843 -0.97228,3.71231 -4.33103,4.06586 -21.74353,12.28598 -0.17678,3.44715 -4.41941,0.0884 -1.76777,-2.47488 -0.35355,-3.53553 2.38648,-2.12132 z"
         style="opacity:1;fill:#000000;fill-opacity:1;fill-rule:nonzero;stroke:none;stroke-width:1;stroke-miterlimit:4;stroke-dasharray:none;stroke-opacity:1" />
      <path
         id="path4394"
         d="m 317.13672,111.11523 -3.26953,1.58985 -2.65235,3.625 0.0899,5.30273 c 0,0 1.85493,2.74069 2.29687,3.00586 0.44194,0.26516 3.88867,1.67969 3.88867,1.67969 l 3.80079,-0.26563 2.4746,-1.67968 2.21094,-2.1211 0.61914,-3.97851 -0.79687,-4.24219 -2.91602,-2.5625 -5.74609,-0.35352 z m 1.85742,2.20899 2.5625,0.53125 2.74024,1.85547 0.35351,2.91601 -1.23828,3.35938 -2.5625,2.12109 -3.09375,-0.0879 -3.44727,-1.67969 -1.32617,-3.80078 1.5918,-2.74023 2.82812,-2.29688 1.5918,-0.17773 z"
         style="opacity:1;fill:#000000;fill-opacity:1;fill-rule:nonzero;stroke:none;stroke-width:1;stroke-miterlimit:4;stroke-dasharray:none;stroke-opacity:1"
         inkscape:connector-curvature="0" />
      <path
         inkscape:connector-curvature="0"
         id="path4408"
         d="m 316.87223,116.3296 -0.0884,1.23744 1.41421,0.26516 0.17678,-1.41421 z"
         style="opacity:1;fill:#000000;fill-opacity:1;fill-rule:nonzero;stroke:none;stroke-width:1;stroke-miterlimit:4;stroke-dasharray:none;stroke-opacity:1" />
      <path
         inkscape:connector-curvature="0"
         id="path4410"
         d="m 320.23098,119.59997 -0.26516,1.06066 1.14905,0.7955 0.61872,-1.32583 z"
         style="opacity:1;fill:#000000;fill-opacity:1;fill-rule:nonzero;stroke:none;stroke-width:1;stroke-miterlimit:4;stroke-dasharray:none;stroke-opacity:1" />
    </g>
    <g
       id="g4428"
       transform="matrix(0.59866221,0,0,0.59866221,-147.05951,90.60488)"
       style="opacity:1;fill:#000000;fill-opacity:1">
      <path
         inkscape:connector-curvature="0"
         id="path4414"
         d="m 160.25,418.86133 -6,0.875 -2.875,2.25 -1.625,3.5 0.375,4.125 -2.875,2.875 -1.625,3.75 1.125,2 3,0 0.875,4.125 1,4 3.75,2.75 5.875,1.25 7,-0.25 5,-1 5.25,-2.75 3.375,-4.25 1.25,-4.25 -0.125,-9 0.125,-1.875 1,-1.25 -1,-3 -3.25,-1.625 -2,0.125 -4.625,2.25 -3,0.625 -4,0 -1.375,-3.875 -4.625,-1.375 z m -0.25,3.375 2.625,1.25 0.625,2.625 2,0.125 3.5,0.75 0.375,1.625 2,0.5 2.25,1.25 1.125,3.125 -1.875,1.875 -3,1.375 -4.875,0.375 -1.375,-0.625 0.125,-2 0.125,-2.125 -1.75,-0.625 -1,0.625 -0.875,3.25 0.5,2.625 3.125,1.5 4.625,0 3.375,-1 4.375,-2.625 1.25,-2.875 -1.25,-4.875 -3.25,-1.5 2.125,-0.875 3.375,-1 2.125,0.25 -0.875,2 0,2.875 0.125,7.375 -0.5,3.125 -3.75,3.5 -4.25,2.375 -8.5,0.875 -5.5,-1 -3.75,-1.75 0,-5.5 0.375,-1 2.625,-1.875 0.875,-2.75 -0.875,-2.5 -3.625,-1.375 -0.5,-2.75 1.375,-2.5 1.625,-1.875 4.75,-0.25 z m -7.5,9.375 1.5,0.75 0.25,2 -1.375,1.125 -3.25,1.125 -1.75,-0.875 1.375,-2.375 3.25,-1.75 z"
         style="opacity:0.98600003;fill:#000000;fill-opacity:1;fill-rule:nonzero;stroke:none;stroke-width:1;stroke-miterlimit:4;stroke-dasharray:none;stroke-opacity:1" />
      <path
         inkscape:connector-curvature="0"
         id="path4422"
         d="m 161.375,427.1122 0.25,2.75 3.125,1.25 2.125,-0.375 1,-1.75 -2.5,-1.5 z"
         style="opacity:0.98600003;fill:#000000;fill-opacity:1;fill-rule:nonzero;stroke:none;stroke-width:1;stroke-miterlimit:4;stroke-dasharray:none;stroke-opacity:1" />
      <path
         inkscape:connector-curvature="0"
         id="path4424"
         d="m 154.375,426.3622 0,2.25 0.875,0.125 0.625,-2.875 -1.125,-0.5 z"
         style="opacity:0.98600003;fill:#000000;fill-opacity:1;fill-rule:nonzero;stroke:none;stroke-width:1;stroke-miterlimit:4;stroke-dasharray:none;stroke-opacity:1" />
      <path
         inkscape:connector-curvature="0"
         id="path4426"
         d="m 157.25,427.2372 0.125,2.75 1.125,0 0.75,-2.75 -1.25,-0.625 z"
         style="opacity:0.98600003;fill:#000000;fill-opacity:1;fill-rule:nonzero;stroke:none;stroke-width:1;stroke-miterlimit:4;stroke-dasharray:none;stroke-opacity:1" />
    </g>
  </g>
</svg>
