<?xml version="1.0" standalone="no"?>
<!DOCTYPE svg PUBLIC "-//W3C//DTD SVG 1.1//EN" "http://www.w3.org/Graphics/SVG/1.1/DTD/svg11.dtd" >
<svg xmlns="http://www.w3.org/2000/svg">
<metadata></metadata>
<defs>
<font id="pixel_dingbats-7regular" horiz-adv-x="2252" >
<font-face units-per-em="2048" ascent="1638" descent="-410" />
<missing-glyph horiz-adv-x="500" />
<glyph horiz-adv-x="0" />
<glyph unicode="&#xd;" />
<glyph unicode=" " />
<glyph unicode="!" d="M0 0v512h768v-512h-768zM0 768v1280h768v-1280h-768z" />
<glyph unicode="&#x22;" d="M0 256v256h256v256h-256v256h256v256h-256v256h256v256h-256v256h256v-256h256v256h256v-256h256v256h256v-256h256v256h256v-256h256v-256h-256v-256h256v-256h-256v-256h256v-256h-256v-256h256v-256h-256v256h-256v-256h-256v256h-256v-256h-256v256h-256v-256h-256 v256h-256zM256 256h256v256h-256v-256zM256 768h256v256h-256v-256zM256 1280h256v256h-256v-256zM512 512h256v256h-256v-256zM512 1024h256v256h-256v-256zM512 1536h256v256h-256v-256zM768 256h256v256h-256v-256zM768 768h256v256h-256v-256zM768 1280h256v256h-256 v-256zM1024 512h256v256h-256v-256zM1024 1024h256v256h-256v-256zM1024 1536h256v256h-256v-256zM1280 256h256v256h-256v-256zM1280 768h256v256h-256v-256zM1280 1280h256v256h-256v-256zM1536 512h256v256h-256v-256zM1536 1024h256v256h-256v-256zM1536 1536h256v256 h-256v-256z" />
<glyph unicode="#" d="M0 256v512h256v512h-256v512h256v256h512v-256h512v256h512v-256h256v-512h-256v-512h256v-512h-256v-256h-512v256h-512v-256h-512v256h-256zM768 768h512v512h-512v-512z" />
<glyph unicode="$" d="M0 0v512h768v256h-512v256h-256v768h256v256h1536v-512h-768v-256h512v-256h256v-768h-256v-256h-1536zM512 1280h256v256h-256v-256zM1024 512h256v256h-256v-256z" />
<glyph unicode="%" d="M0 0v512h256v256h256v256h256v256h-768v768h768v-768h256v256h256v256h256v256h512v-512h-256v-256h-256v-256h-256v-256h768v-768h-768v768h-256v-256h-256v-256h-256v-256h-512z" />
<glyph unicode="&#x26;" d="M0 512v512h512v512h-512v512h512v-512h512v512h512v-512h512v-512h-512v-512h512v-512h-512v512h-512v-512h-512v512h-512zM512 512h512v512h-512v-512zM1024 1024h512v512h-512v-512z" />
<glyph unicode="'" d="M0 1024v1024h1024v-1024h1024v-1024h-1024v1024h-1024z" />
<glyph unicode="(" d="M0 256v256h2048v-256h-2048zM0 768v256h2048v-256h-2048zM0 1280v256h2048v-256h-2048zM0 1792v256h2048v-256h-2048z" />
<glyph unicode=")" d="M0 0v2048h256v-2048h-256zM512 0v2048h256v-2048h-256zM1024 0v2048h256v-2048h-256zM1536 0v2048h256v-2048h-256z" />
<glyph unicode="*" d="M0 256v256h256v-256h-256zM0 768v256h256v-256h-256zM0 1280v256h256v-256h-256zM0 1792v256h256v-256h-256zM512 256v256h256v-256h-256zM512 768v256h256v-256h-256zM512 1280v256h256v-256h-256zM512 1792v256h256v-256h-256zM1024 256v256h256v-256h-256zM1024 768 v256h256v-256h-256zM1024 1280v256h256v-256h-256zM1024 1792v256h256v-256h-256zM1536 256v256h256v-256h-256zM1536 768v256h256v-256h-256zM1536 1280v256h256v-256h-256zM1536 1792v256h256v-256h-256z" />
<glyph unicode="+" d="M0 512v768h512v512h768v-512h512v-768h-512v-512h-768v512h-512z" />
<glyph unicode="," d="M0 256v256h256v-256h256v256h256v-256h256v256h256v-256h256v256h256v-256h256v-256h-256v256h-256v-256h-256v256h-256v-256h-256v256h-256v-256h-256v256h-256zM0 768v256h256v256h256v-256h256v256h256v-256h256v256h256v-256h256v256h256v-256h-256v-256h-256v256 h-256v-256h-256v256h-256v-256h-256v256h-256v-256h-256zM0 1792v256h256v-256h256v256h256v-256h256v256h256v-256h256v256h256v-256h256v-256h-256v256h-256v-256h-256v256h-256v-256h-256v256h-256v-256h-256v256h-256z" />
<glyph unicode="-" d="M0 512v768h1792v-768h-1792z" />
<glyph unicode="." d="M0 256v256h256v256h256v256h256v256h256v256h256v256h256v256h256v-256h-256v-256h-256v-256h-256v-256h-256v-256h-256v-256h-256v-256h-256zM0 1280v256h256v256h256v256h256v-256h-256v-256h-256v-256h-256zM768 0v256h256v256h256v256h256v256h256v256h256v-256h-256 v-256h-256v-256h-256v-256h-256v-256h-256zM1792 0v256h256v-256h-256z" />
<glyph unicode="/" d="M0 0v2048h2048v-256h-256v-256h256v-256h-256v-256h256v-256h-256v-256h256v-256h-256v-256h-256v256h-256v-256h-256v256h-256v-256h-256v256h-256v-256h-256zM256 512h256v256h-256v-256zM256 1024h256v256h-256v-256zM256 1536h256v256h-256v-256zM768 512h256v256 h-256v-256zM768 1024h256v256h-256v-256zM768 1536h256v256h-256v-256zM1280 512h256v256h-256v-256zM1280 1024h256v256h-256v-256zM1280 1536h256v256h-256v-256z" />
<glyph unicode="0" d="M0 256v1536h256v256h1280v-256h256v-1536h-256v-256h-1280v256h-256zM768 768h256v512h-256v-512z" />
<glyph unicode="1" d="M0 0v768h512v512h-512v768h1280v-1280h512v-768h-1792z" />
<glyph unicode="2" d="M0 0v768h256v256h768v512h-256v-256h-768v512h256v256h1280v-256h256v-768h-256v-256h-768v-256h1024v-512h-1792z" />
<glyph unicode="3" d="M0 0v512h1024v256h-768v512h768v256h-1024v512h1536v-256h256v-512h-256v-512h256v-512h-256v-256h-1536z" />
<glyph unicode="4" d="M0 1024v1024h768v-768h256v768h768v-2048h-768v768h-768v256h-256z" />
<glyph unicode="5" d="M0 256v512h768v-256h256v512h-1024v1024h1792v-512h-1024v-256h768v-256h256v-768h-256v-256h-1280v256h-256z" />
<glyph unicode="6" d="M0 256v1536h256v256h1280v-512h-768v-256h768v-256h256v-768h-256v-256h-1280v256h-256zM768 512h256v512h-256v-512z" />
<glyph unicode="7" d="M0 1024v1024h1792v-2048h-768v1536h-256v-512h-768z" />
<glyph unicode="8" d="M0 256v768h256v256h-256v512h256v256h1280v-256h256v-512h-256v-256h256v-768h-256v-256h-1280v256h-256zM768 512h256v512h-256v-512zM768 1280h256v256h-256v-256z" />
<glyph unicode="9" d="M0 1024v768h256v256h1280v-256h256v-1536h-256v-256h-1280v512h768v256h-768v256h-256zM768 1024h256v512h-256v-512z" />
<glyph unicode=":" d="M0 256v512h512v-512h-512zM0 1024v512h512v-512h-512z" />
<glyph unicode=";" d="M0 0v256h256v256h-256v768h256v256h-256v512h512v-256h256v256h768v-256h256v256h256v-256h-256v-256h256v-256h-256v-256h256v-256h-256v-256h256v-256h-256v-256h-256v256h-256v-256h-256v256h-256v-256h-256v256h-256v-256h-256zM256 512h256v256h-256v-256zM256 1024 h256v256h-256v-256zM256 1536h256v256h-256v-256zM512 768h256v256h-256v-256zM768 512h256v256h-256v-256zM768 1024h256v256h-256v-256zM768 1536h256v256h-256v-256zM1024 256h256v256h-256v-256zM1024 1280h256v256h-256v-256zM1280 512h256v256h-256v-256zM1280 1024 h256v256h-256v-256zM1280 1536h256v256h-256v-256zM1536 768h256v256h-256v-256z" />
<glyph unicode="&#x3c;" d="M0 0v2048h2048v-256h-1792v-1792h-256z" />
<glyph unicode="=" d="M0 0v2048h2048v-256h-768v-768h768v-256h-768v-768h-256v768h-768v-768h-256zM256 1024h768v768h-768v-768z" />
<glyph unicode="&#x3e;" d="M0 0v768h256v256h-256v768h256v256h768v-256h256v256h768v-256h-768v-768h768v-256h-768v-768h-256v768h-768v-768h-256zM256 1024h768v768h-768v-768zM1024 768h256v256h-256v-256z" />
<glyph unicode="?" d="M0 1536v512h1280v-256h256v-768h-256v-256h-1024v256h512v512h-768zM256 0v512h768v-512h-768z" />
<glyph unicode="@" d="M0 0v256h256v256h256v256h256v512h-256v256h-256v256h-256v256h256v-256h256v-256h256v-256h512v256h256v256h256v256h256v-256h-256v-256h-256v-256h-256v-512h256v-256h256v-256h256v-256h-256v256h-256v256h-256v256h-512v-256h-256v-256h-256v-256h-256z" />
<glyph unicode="A" d="M0 0v1536h256v256h256v256h1024v-256h256v-256h256v-1536h-512v512h-1024v-512h-512zM512 1024h1024v256h-256v256h-512v-256h-256v-256z" />
<glyph unicode="B" d="M0 256v256h512v256h512v-256h512v256h512v-256h-512v-256h-512v256h-512v-256h-512zM0 1280v256h512v256h512v-256h512v256h512v-256h-512v-256h-512v256h-512v-256h-512z" />
<glyph unicode="C" d="M0 512v256h512v-256h512v256h512v-256h512v-256h-512v256h-512v-256h-512v256h-512zM0 1280v256h512v256h512v-256h512v256h512v-256h-512v-256h-512v256h-512v-256h-512z" />
<glyph unicode="D" d="M0 512v512h512v512h512v512h512v-256h-256v-256h-256v-256h-256v-256h-256v-256h-256v-256h-256zM0 1536v512h512v-256h-256v-256h-256zM512 0v512h512v512h512v512h512v-256h-256v-256h-256v-256h-256v-256h-256v-256h-256v-256h-256zM1536 0v512h512v-256h-256v-256 h-256z" />
<glyph unicode="E" d="M0 768v256h512v-256h-512zM0 1792v256h512v-256h-512zM512 256v256h512v-256h-512zM512 1280v256h512v-256h-512zM1024 768v256h512v-256h-512zM1024 1792v256h512v-256h-512zM1536 256v256h512v-256h-512zM1536 1280v256h512v-256h-512z" />
<glyph unicode="F" d="M0 512v512h256v-512h-256zM0 1536v512h256v-512h-256zM512 0v512h256v-512h-256zM512 1024v512h256v-512h-256zM1024 512v512h256v-512h-256zM1024 1536v512h256v-512h-256zM1536 0v512h256v-512h-256zM1536 1024v512h256v-512h-256z" />
<glyph unicode="G" d="M0 0v256h256v-256h-256zM0 768v512h256v-512h-256zM0 1792v256h256v-256h-256zM768 0v256h512v-256h-512zM768 768v512h512v-512h-512zM768 1792v256h512v-256h-512zM1792 0v256h256v-256h-256zM1792 768v512h256v-512h-256zM1792 1792v256h256v-256h-256z" />
<glyph unicode="H" d="M0 1280v512h256v256h512v-256h256v-512h-256v-256h-512v256h-256zM1024 256v512h256v256h512v-256h256v-512h-256v-256h-512v256h-256z" />
<glyph unicode="I" d="M0 1024v1024h1024v-1024h1024v-1024h-1024v1024h-1024zM256 1280h512v512h-512v-512zM1280 256h512v512h-512v-512z" />
<glyph unicode="J" d="M0 1280v512h256v256h512v-256h256v-512h-256v-256h-512v256h-256zM256 1536h256v256h-256v-256zM1024 256v512h256v256h512v-256h256v-512h-256v-256h-512v256h-256zM1280 512h256v256h-256v-256z" />
<glyph unicode="K" d="M0 768v256h256v-256h-256zM0 1792v256h256v-256h-256zM512 256v256h256v-256h-256zM512 1280v256h256v-256h-256zM1024 768v256h256v-256h-256zM1024 1792v256h256v-256h-256zM1536 256v256h256v-256h-256zM1536 1280v256h256v-256h-256z" />
<glyph unicode="L" d="M0 256v512h256v512h-256v512h256v256h512v-256h512v256h512v-256h256v-512h-256v-512h256v-512h-256v-256h-512v256h-512v-256h-512v256h-256zM256 256h512v512h-512v-512zM256 1280h512v512h-512v-512zM768 768h512v512h-512v-512zM1280 256h512v512h-512v-512z M1280 1280h512v512h-512v-512z" />
<glyph unicode="M" d="M0 0v2048h2048v-2048h-2048zM256 256h512v512h-512v-512zM256 1280h512v512h-512v-512zM1280 256h512v512h-512v-512zM1280 1280h512v512h-512v-512z" />
<glyph unicode="N" d="M0 0v2048h2048v-2048h-2048zM256 256h256v256h256v256h-512v-512zM256 1280h256v256h256v256h-512v-512zM1280 256h256v256h256v256h-512v-512zM1280 1280h256v256h256v256h-512v-512z" />
<glyph unicode="O" d="M0 0v2048h2048v-2048h-2048zM256 256h256v1280h1280v256h-1536v-1536zM768 512h768v768h-256v-512h-512v-256z" />
<glyph unicode="P" d="M0 0v2048h256v-256h256v-256h256v-256h512v256h256v256h256v256h256v-2048h-256v256h-256v256h-256v256h-512v-256h-256v-256h-256v-256h-256z" />
<glyph unicode="Q" d="M0 0v2048h2048v-256h-256v-256h-256v-256h-256v-256h-256v-256h-256v-256h-256v-256h-256v-256h-256z" />
<glyph unicode="R" d="M0 0v256h256v256h256v-256h-256v-256h-256zM0 1792v256h256v-256h256v-256h-256v256h-256zM512 768v512h256v256h512v-256h256v-512h-256v-256h-512v256h-256zM768 768h512v512h-512v-512zM1536 256v256h256v-256h256v-256h-256v256h-256zM1536 1536v256h256v256h256 v-256h-256v-256h-256z" />
<glyph unicode="S" d="M0 0v2048h2048v-1536h-1536v1024h1024v-512h-256v256h-512v-512h1024v1024h-1536v-1536h1792v-256h-2048z" />
<glyph unicode="T" d="M0 0v256h256v256h256v256h256v256h256v256h256v256h256v256h256v256h256v-256h-256v-256h-256v-256h-256v-256h-256v-256h-256v-256h-256v-256h-256v-256h-256zM0 768v256h256v256h256v256h256v256h256v256h256v-256h-256v-256h-256v-256h-256v-256h-256v-256h-256z M0 1536v256h256v256h256v-256h-256v-256h-256zM768 0v256h256v256h256v256h256v256h256v256h256v-256h-256v-256h-256v-256h-256v-256h-256v-256h-256zM1536 0v256h256v256h256v-256h-256v-256h-256z" />
<glyph unicode="U" d="M0 256v512h256v512h-256v512h256v256h512v-256h512v256h512v-256h256v-512h-256v-512h256v-512h-256v-256h-512v256h-512v-256h-512v256h-256zM256 512h256v256h-256v-256zM256 1536h256v256h-256v-256zM768 768h512v512h-512v-512zM1280 512h256v256h-256v-256z M1280 1536h256v256h-256v-256z" />
<glyph unicode="V" d="M0 0v2048h2048v-2048h-2048zM256 256h1536v1536h-1536v-1536z" />
<glyph unicode="W" d="M0 0v2048h2048v-2048h-2048zM256 256h1536v1536h-1536v-1536zM768 768v512h512v-512h-512z" />
<glyph unicode="X" d="M0 256v1536h256v256h1536v-256h256v-1536h-256v-256h-1536v256h-256zM256 512h256v256h256v512h-256v256h-256v-1024zM512 256h1024v256h-256v256h-512v-256h-256v-256zM512 1536h256v-256h512v256h256v256h-1024v-256zM1280 768h256v-256h256v1024h-256v-256h-256v-512z " />
<glyph unicode="Y" d="M0 0v2048h2048v-2048h-2048zM256 256h1536v1536h-1536v-1536zM512 768v512h256v256h512v-256h256v-512h-256v-256h-512v256h-256z" />
<glyph unicode="Z" d="M0 0v768h256v512h-256v768h768v-256h512v256h768v-768h-256v-512h256v-768h-768v256h-512v-256h-768zM256 256h512v512h-512v-512zM256 1280h512v512h-512v-512zM1280 256v512h512v-512h-512zM1280 1280h512v512h-512v-512z" />
<glyph unicode="[" d="M0 768v768h256v256h512v-256h256v256h512v-256h256v-768h-256v-256h-256v-256h-256v-256h-256v256h-256v256h-256v256h-256z" />
<glyph unicode="\" d="M0 768v512h256v256h256v256h256v256h256v-256h256v-256h256v-256h256v-512h-256v-256h-512v-256h256v-256h-768v256h256v256h-512v256h-256zM768 512h256v256h-256v-256z" />
<glyph unicode="]" d="M0 768v256h256v256h256v256h256v256h256v-256h256v-256h256v-256h256v-256h-256v-256h-256v256h-256v-512h256v-256h-768v256h256v512h-256v-256h-256v256h-256zM512 1024h256v256h-256v-256zM1024 1024h256v256h-256v-256z" />
<glyph unicode="^" d="M0 768v256h256v256h256v256h256v256h256v-256h256v-256h256v-256h256v-256h-256v-256h-256v-256h-256v-256h-256v256h-256v256h-256v256h-256z" />
<glyph unicode="_" d="M0 256v1280h256v256h1280v-256h256v-1280h-256v-256h-1280v256h-256zM256 256h1280v1280h-1280v-1280z" />
<glyph unicode="`" d="M0 256v1280h256v256h1280v-256h256v-1280h-256v-256h-1280v256h-256zM256 256h1280v1280h-1280v-1280zM768 768v256h256v-256h-256z" />
<glyph unicode="a" d="M0 256v1280h256v256h1280v-256h256v-1280h-256v-256h-1280v256h-256zM256 256h1280v1280h-1280v-1280zM512 512v256h256v-256h-256zM1024 1024v256h256v-256h-256z" />
<glyph unicode="b" d="M0 256v1280h256v256h1280v-256h256v-1280h-256v-256h-1280v256h-256zM256 256h1280v1280h-1280v-1280zM512 512v256h256v256h256v256h256v-256h-256v-256h-256v-256h-256z" />
<glyph unicode="c" d="M0 256v1280h256v256h1280v-256h256v-1280h-256v-256h-1280v256h-256zM256 256h1280v1280h-1280v-1280zM512 512v256h256v-256h-256zM512 1024v256h256v-256h-256zM1024 512v256h256v-256h-256zM1024 1024v256h256v-256h-256z" />
<glyph unicode="d" d="M0 256v1280h256v256h1280v-256h256v-1280h-256v-256h-1280v256h-256zM256 256h1280v1280h-1280v-1280zM512 512v256h256v256h-256v256h256v-256h256v256h256v-256h-256v-256h256v-256h-256v256h-256v-256h-256z" />
<glyph unicode="e" d="M0 256v1536h256v256h1280v-256h256v-1024h-1280v-256h1280v-512h-1536v256h-256zM512 1280h768v256h-768v-256z" />
<glyph unicode="f" d="M0 256v1280h256v256h1280v-256h256v-1280h-256v-256h-1280v256h-256zM256 256h1280v1280h-1280v-1280zM512 512v256h768v-256h-768zM512 1024v256h768v-256h-768z" />
<glyph unicode="g" d="M0 0v1792h256v-256h256v-256h256v-256h256v-256h-256v-256h-256v-256h-256v-256h-256z" />
<glyph unicode="h" d="M0 0v1792h512v-1792h-512zM768 0v1792h512v-1792h-512z" />
<glyph unicode="i" d="M0 0v512h256v512h-256v512h1280v-512h-256v-512h256v-512h-1280zM256 1792v256h768v-256h-768z" />
<glyph unicode="j" d="M0 0v1792h256v-256h256v-256h256v-256h256v-256h-256v-256h-256v-256h-256v-256h-256zM1280 0v1792h512v-1792h-512z" />
<glyph unicode="k" d="M0 0v1792h256v-256h256v-256h256v-256h256v768h256v-256h256v-256h256v-256h256v-256h-256v-256h-256v-256h-256v-256h-256v768h-256v-256h-256v-256h-256v-256h-256z" />
<glyph unicode="l" d="M0 0v1792h1792v-1792h-1792z" />
<glyph unicode="m" d="M0 0v512h256v256h256v256h-256v256h-256v512h768v-256h256v-256h256v-256h256v-256h-256v-256h-256v-256h-256v-256h-768z" />
<glyph unicode="n" d="M0 0v512h256v256h256v256h-256v256h-256v512h512v-256h256v-256h256v256h256v256h512v-512h-256v-256h-256v-256h256v-256h256v-512h-512v256h-256v256h-256v-256h-256v-256h-512z" />
<glyph unicode="o" d="M0 0v1792h1792v-1792h-1792zM768 768h256v256h-256v-256z" />
<glyph unicode="p" d="M0 0v1792h1792v-1792h-1792zM256 1280h256v256h-256v-256zM1280 256h256v256h-256v-256z" />
<glyph unicode="q" d="M0 0v1792h1792v-1792h-1792zM256 1280h256v256h-256v-256zM768 768h256v256h-256v-256zM1280 256h256v256h-256v-256z" />
<glyph unicode="r" d="M0 0v1792h1792v-1792h-1792zM256 256h256v256h-256v-256zM256 1280h256v256h-256v-256zM1280 256h256v256h-256v-256zM1280 1280h256v256h-256v-256z" />
<glyph unicode="s" d="M0 0v1792h1792v-1792h-1792zM256 256h256v256h-256v-256zM256 1280h256v256h-256v-256zM768 768h256v256h-256v-256zM1280 256h256v256h-256v-256zM1280 1280h256v256h-256v-256z" />
<glyph unicode="t" d="M0 0v1792h1792v-1792h-1792zM256 256h256v256h-256v-256zM256 1280h256v256h-256v-256zM768 256h256v256h-256v-256zM768 1280h256v256h-256v-256zM1280 256h256v256h-256v-256zM1280 1280h256v256h-256v-256z" />
<glyph unicode="u" d="M0 0v512h256v256h256v256h-256v512h256v256h256v-256h256v-512h-256v-256h256v-256h256v-512h-1280zM256 256h768v256h-256v256h-256v-256h-256v-256zM512 1024h256v512h-256v-512z" />
<glyph unicode="v" d="M0 0v512h256v256h256v512h-256v512h256v256h256v-256h256v-512h-256v-512h256v-256h256v-512h-1280zM256 256h768v256h-256v256h-256v-256h-256v-256zM512 1280h256v512h-256v-512z" />
<glyph unicode="w" d="M0 1024v256h256v256h256v256h256v256h768v-256h256v-1024h-256v-256h256v-256h256v-256h-1792v256h256v256h256v256h256v256h-512v-256h-256v256h-256zM256 1024h256v256h-256v-256zM512 1280h512v256h-512v-256zM768 256h768v256h-256v256h-256v-256h-256v-256z M1024 1536h256v256h-256v-256zM1280 768h256v768h-256v-768z" />
<glyph unicode="x" d="M0 0v512h256v256h256v512h-256v768h512v-256h256v256h512v-768h-256v-512h256v-256h256v-512h-1792zM256 256h1280v256h-256v256h-256v512h256v512h-256v-256h-256v256h-256v-512h256v-512h-256v-256h-256v-256z" />
<glyph unicode="y" d="M0 1024v256h256v-256h256v-256h256v512h-256v512h256v-512h256v768h256v-768h256v512h256v-512h-256v-512h256v256h256v256h256v-256h-256v-256h-256v-256h-256v-256h256v-256h-1280v256h256v256h-256v256h-256v256h-256zM768 512h256v-256h256v256h256v256h-256v512 h-256v-512h-256v-256z" />
<glyph unicode="z" d="M0 1024v768h256v256h512v-256h512v256h512v-256h256v-768h-256v-256h-256v-256h256v-512h-1536v512h256v256h-256v256h-256zM256 1024h256v-256h256v-256h-256v-256h1024v256h-256v256h256v256h256v768h-512v-256h256v-256h-256v256h-512v-256h-256v256h256v256h-512 v-768z" />
<glyph unicode="{" d="M0 0v512h256v256h256v256h-256v512h256v256h256v-256h256v-512h-256v-256h256v-256h256v-512h-1280z" />
<glyph unicode="|" d="M0 0v512h256v256h256v512h-256v512h256v256h256v-256h256v-512h-256v-512h256v-256h256v-512h-1280z" />
<glyph unicode="}" d="M0 1024v256h256v256h256v256h256v256h512v-256h256v-256h256v-768h-256v-256h256v-256h256v-256h-1792v256h256v256h256v256h256v512h-256v-256h-256v-256h-256v256h-256zM768 1536h256v256h-256v-256z" />
<glyph unicode="~" d="M0 0v512h256v256h256v512h-256v768h512v-256h256v256h512v-768h-256v-512h256v-256h256v-512h-1792z" />
<glyph unicode="&#xa0;" d="M0 0v512h256v256h512v1280h256v-1792h-256v-256h-768zM256 256h512v256h-512v-256z" />
<glyph unicode="&#xa1;" d="M0 0v512h256v256h512v1280h256v-1792h-256v-256h-768z" />
<glyph unicode="&#xa2;" d="M0 0v512h256v256h512v1280h256v-256h256v-256h256v-768h-256v768h-256v-1280h-256v-256h-768z" />
<glyph unicode="&#xa3;" d="M0 0v512h256v256h512v1280h256v-256h256v-256h256v-1024h-256v512h-256v-768h-256v-256h-768zM1024 1280h256v256h-256v-256z" />
<glyph unicode="&#xa4;" d="M0 512v256h256v512h1536v-512h256v-256h-256v-512h-1536v512h-256zM512 256h1024v768h-1024v-768z" />
<glyph unicode="&#xa5;" d="M0 768v256h512v768h256v-1792h-256v768h-512zM1024 0v1792h256v-768h512v-256h-512v-768h-256z" />
<glyph unicode="&#xa6;" d="M0 768v256h256v768h256v-256h256v-256h256v-256h256v768h256v-768h256v-256h-256v-768h-256v768h-256v-256h-256v-256h-256v-256h-256v768h-256zM512 512h256v256h256v256h-256v256h-256v-768z" />
<glyph unicode="&#xa7;" d="M0 0v256h512v-256h-512zM0 512v256h512v-256h-512zM0 1024v256h512v-256h-512zM0 1536v256h512v-256h-512zM1280 0v256h512v-256h-512zM1280 512v256h512v-256h-512zM1280 1024v256h512v-256h-512zM1280 1536v256h512v-256h-512z" />
<glyph unicode="&#xa8;" d="M0 256v256h256v256h-256v256h256v256h-256v256h256v256h512v-256h256v256h512v-256h256v-256h-256v-256h256v-256h-256v-256h256v-256h-256v-256h-1280v256h-256zM512 256h768v1280h-256v-256h-256v256h-256v-1280z" />
<glyph unicode="&#xa9;" d="M0 0v512h256v256h512v-256h256v256h512v-256h256v-512h-256v512h-512v-512h-256v512h-512v-512h-256z" />
<glyph unicode="&#xaa;" d="M0 0v512h256v256h512v-256h256v256h512v-256h256v-512h-256v512h-512v-512h-256v512h-512v-512h-256zM0 1024v256h1792v-256h-1792z" />
<glyph unicode="&#xab;" d="M0 1024v256h768v768h256v-768h768v-256h-1792zM256 512v256h1280v-256h-1280zM512 0v256h768v-256h-768z" />
<glyph unicode="&#xac;" d="M0 1280v256h512v256h768v-256h512v-256h-512v-256h-256v-512h512v-512h-1280v512h512v512h-256v256h-512z" />
<glyph unicode="&#xad;" d="M0 0v1792h256v256h1536v-2048h-1792zM256 256h1280v1536h-1280v-1536z" />
<glyph unicode="&#xae;" d="M0 0v1792h1024v-256h1024v-1536h-2048zM256 256h1536v1024h-1024v256h-512v-1280z" />
<glyph unicode="&#xaf;" d="M0 0v1792h1024v-256h1024v-1536h-2048zM256 256h1536v512h-1536v-512zM256 1024h1536v256h-1024v256h-512v-512z" />
<glyph unicode="&#xb0;" d="M0 0v2048h2048v-2048h-2048zM256 256h256v512h1024v-512h256v1536h-256v-768h-1024v768h-256v-1536zM768 256h256v256h-256v-256zM768 1280h512v512h-512v-512z" />
<glyph unicode="&#xb1;" d="M0 1024v256h256v256h256v256h256v-1280h-256v256h-256v256h-256zM768 0v256h768v768h-512v256h512v-256h256v-768h-256v-256h-768z" />
<glyph unicode="&#xb2;" d="M0 1024v768h256v256h768v-256h256v-768h-256v-256h-768v256h-256zM256 1024h768v768h-768v-768zM1280 512v256h256v-256h256v-256h256v-256h-256v256h-256v256h-256z" />
<glyph unicode="&#xb3;" d="M0 512v1280h256v256h1280v-512h512v-1536h-1536v512h-512zM256 768h256v512h256v256h512v256h-1024v-1024zM768 256h1024v1024h-1024v-1024z" />
<glyph unicode="&#xb4;" d="M0 0v1792h2048v-1792h-2048zM256 256h1536v768h-512v-256h-512v256h-512v-768zM256 1280h512v-256h512v256h512v256h-1536v-256z" />
<glyph unicode="&#xb5;" d="M0 0v1792h2048v-1792h-2048zM256 256h1536v768h-1536v-768zM256 1280h1536v256h-1536v-256z" />
<glyph unicode="&#xb6;" d="M0 0v1792h2048v-1792h-2048zM256 256h1536v768h-256v-512h-1024v512h-256v-768zM256 1280h512v-512h512v512h512v256h-1536v-256z" />
<glyph unicode="&#xb7;" d="M0 768v1280h256v-256h1280v256h256v-1280h-256v-256h-512v-256h512v-256h-1280v256h512v256h-512v256h-256zM256 768h512v-256h256v256h512v768h-1280v-768z" />
<glyph unicode="&#xb8;" d="M0 1536v256h256v-256h-256zM256 512v768h256v256h768v-256h256v-768h-256v-512h-768v512h-256zM512 512h768v768h-768v-768zM768 1792v256h256v-256h-256zM1536 1536v256h256v-256h-256z" />
<glyph unicode="&#xb9;" d="M0 0v256h512v256h-256v256h-256v1024h1280v-1024h-256v-256h-256v-256h512v-256h-1280zM256 768h768v768h-768v-768z" />
<glyph unicode="&#xba;" d="M0 0v1792h256v256h256v-256h256v256h256v-256h256v256h256v-256h256v-1792h-1792zM256 256h1280v1280h-1280v-1280zM512 512v256h256v256h-256v256h512v-512h256v-256h-768z" />
<glyph unicode="&#xbb;" d="M0 0v2048h2048v-2048h-2048zM256 256h1536v1536h-1536v-1536zM512 512v256h1024v-256h-1024z" />
<glyph unicode="&#xbc;" d="M0 0v2048h2048v-2048h-2048zM256 256h1536v1536h-1536v-1536zM512 512v1024h1024v-1024h-1024zM768 768h512v256h-512v-256z" />
<glyph unicode="&#xbd;" d="M0 0v2048h2048v-2048h-2048zM256 256h1536v1536h-1536v-1536zM512 512v256h256v512h-256v256h256v-256h512v256h256v-256h-256v-512h256v-256h-256v256h-512v-256h-256z" />
<glyph unicode="&#xbe;" d="M0 0v2048h2048v-2048h-2048zM256 256h1536v1536h-1536v-1536zM512 1280v256h1024v-768h-512v-256h-256v512h512v256h-768z" />
<glyph unicode="&#xbf;" d="M0 0v2048h2048v-2048h-2048zM256 256h1536v1536h-1536v-1536zM512 768v512h256v256h512v-256h256v-512h-256v-256h-512v256h-256zM768 1024h256v256h-256v-256z" />
<glyph unicode="&#xc0;" d="M0 256v768h256v256h768v-256h256v-768h-256v-256h-768v256h-256zM256 768h256v256h-256v-256z" />
<glyph unicode="&#xc1;" d="M0 0v2048h2048v-2048h-2048zM256 256h1536v1536h-1536v-1536zM512 512v1024h1024v-1024h-1024zM768 768h512v512h-512v-512z" />
<glyph unicode="&#xc2;" d="M0 512v1024h256v256h256v256h1024v-256h256v-256h256v-1024h-256v-256h-256v-256h-1024v256h-256v256h-256zM512 1280h256v256h-256v-256z" />
<glyph unicode="&#xc3;" d="M0 512v1536h1792v-1536h-256v-256h-256v-256h-768v256h-256v256h-256zM256 512h256v-256h768v256h256v1280h-1280v-1280z" />
<glyph unicode="&#xc4;" d="M0 0v1536h512v512h1536v-1536h-512v-512h-1536zM256 256h1024v1024h-1024v-1024zM768 1536h768v-768h256v1024h-1024v-256z" />
<glyph unicode="&#xc5;" d="M0 256v768h256v256h1024v256h-256v256h768v-768h-256v256h-256v-1024h-256v-256h-768v256h-256zM256 256h768v768h-768v-768z" />
<glyph unicode="&#xc6;" d="M0 0v768h256v256h256v256h-512v512h256v256h1536v-256h256v-512h-512v-256h256v-256h256v-768h-2048zM512 512h1024v256h-256v256h-512v-256h-256v-256zM512 1280h1024v256h-1024v-256z" />
<glyph unicode="&#xc7;" d="M0 256v768h256v256h256v256h-256v256h256v256h256v-256h256v-256h-256v-256h256v-256h256v-768h-256v-256h-768v256h-256zM256 256h768v768h-768v-768z" />
<glyph unicode="&#xc8;" d="M0 768v256h1536v256h-256v256h-256v256h256v-256h256v-256h256v-256h256v-256h-256v-256h-256v-256h-256v-256h-256v256h256v256h256v256h-1536z" />
<glyph unicode="&#xc9;" d="M0 768v256h256v-256h-256zM512 768v256h256v-256h-256zM768 0v256h256v256h256v256h-256v256h256v256h-256v256h-256v256h256v-256h256v-256h256v-256h256v-256h-256v-256h-256v-256h-256v-256h-256zM1280 768h256v256h-256v-256z" />
<glyph unicode="&#xca;" d="M0 512v1024h256v256h256v256h1024v-256h256v-256h256v-1024h-256v-256h-256v-256h-1024v256h-256v256h-256zM512 512h256v256h-256v-256zM512 1280h256v256h-256v-256zM768 256h512v256h-512v-256zM1280 512h256v256h-256v-256zM1280 1280h256v256h-256v-256z" />
<glyph unicode="&#xcb;" d="M0 512v256h256v-256h256v-256h256v256h256v256h256v256h256v256h256v-256h-256v-256h-256v-256h-256v-256h-256v-256h-256v256h-256v256h-256z" />
<glyph unicode="&#xcc;" d="M0 512v512h256v-256h256v-256h256v256h256v256h256v256h256v256h256v-512h-256v-256h-256v-256h-256v-256h-256v-256h-256v256h-256v256h-256z" />
<glyph unicode="&#xcd;" d="M0 0v2048h2048v-2048h-2048zM256 256h1536v1536h-1536v-1536zM512 768v256h256v-256h256v256h256v256h256v-256h-256v-256h-256v-256h-256v256h-256z" />
<glyph unicode="&#xce;" d="M0 256v1280h256v256h1280v-256h256v-1280h-256v-256h-1280v256h-256zM256 256h512v256h256v-256h512v512h-256v256h256v512h-512v-256h-256v256h-512v-512h256v-256h-256v-512z" />
<glyph unicode="&#xcf;" d="M0 0v1792h512v-1792h-512zM768 0v1792h256v-256h256v-256h256v-256h256v-256h-256v-256h-256v-256h-256v-256h-256z" />
<glyph unicode="&#xd0;" d="M0 1024v256h256v256h256v256h256v256h256v-256h256v-256h256v-256h256v-256h-256v-1024h-1280v1024h-256zM512 256h768v768h-768v-768zM512 1280h768v256h-256v256h-256v-256h-256v-256zM768 512v256h256v-256h-256z" />
<glyph unicode="&#xd1;" d="M0 0v512h256v1536h1536v-1536h256v-512h-2048zM256 256v256h1536v-256h-1536zM512 768h1024v1024h-1024v-1024z" />
<glyph unicode="&#xd2;" d="M0 768v1024h256v256h1024v-256h256v-1024h256v-256h256v-512h-512v256h-256v256h-1024v256h-256zM256 1024h256v-256h512v256h256v512h-256v256h-512v-256h-256v-512z" />
<glyph unicode="&#xd3;" d="M0 0v1024h256v256h768v512h-512v-256h-256v256h256v256h512v-256h256v-768h256v-1024h-1536zM512 256h256v512h-256v-512z" />
<glyph unicode="&#xd4;" d="M0 512v1024h256v256h256v256h1024v-256h256v-256h256v-1024h-256v-256h-256v-256h-1024v256h-256v256h-256zM256 512h256v-256h1024v256h256v1024h-256v256h-1024v-256h-256v-1024zM512 768v512h1024v-512h-1024z" />
<glyph unicode="&#xd5;" d="M0 1024v256h256v256h256v256h256v256h512v-256h256v-256h256v-256h256v-256h-256v-1024h-256v1024h-256v-1024h-1024v1024h-256zM512 512h512v512h-512v-512z" />
<glyph unicode="&#xd6;" d="M0 0v1536h256v256h256v256h1280v-2048h-1792zM256 256h1280v1536h-512v-512h-256v-256h-512v-768zM256 1280h512v512h-256v-256h-256v-256z" />
<glyph unicode="&#xd7;" d="M0 1280v512h256v256h768v-256h256v-512h-256v-256h-256v-1024h-512v512h256v512h-256v256h-256zM512 1536h256v256h-256v-256z" />
<glyph unicode="&#xd8;" d="M0 256v1536h256v256h1280v-256h256v-1536h-256v-256h-1280v256h-256zM256 256h1280v768h-1280v-768zM256 1280h256v512h-256v-512zM768 1280h256v512h-256v-512zM1280 1280h256v512h-256v-512z" />
<glyph unicode="&#xd9;" d="M0 1024v256h1536v256h256v256h256v-256h-256v-512h-256v-256h-256v-256h-768v256h-256v256h-256zM256 0v256h256v-256h-256zM1280 0v256h256v-256h-256z" />
<glyph unicode="&#xda;" d="M0 512v256h256v1024h256v256h768v-256h256v-1024h256v-256h-1792zM768 0v256h256v-256h-256z" />
<glyph unicode="&#xdb;" d="M0 0v512h256v256h256v256h256v256h256v256h256v256h512v-512h-256v-256h-256v-256h-256v-256h-256v-256h-256v-256h-512zM256 256h256v256h-256v-256zM512 512h256v256h-256v-256z" />
<glyph unicode="&#xdc;" d="M0 0v512h256v256h256v256h-256v256h-256v512h1536v-512h-256v-256h-256v-256h256v-256h256v-512h-1536zM256 256h1024v256h-256v256h-512v-256h-256v-256zM256 1280h256v-256h512v256h256v256h-1024v-256z" />
<glyph unicode="&#xdd;" d="M0 0v1024h256v512h256v256h512v-256h256v-512h256v-1024h-1536zM512 256h256v512h-256v-512zM512 1280h512v256h-512v-256z" />
<glyph unicode="&#xde;" d="M0 0v1280h256v256h256v256h256v-256h1024v-256h256v-1280h-2048zM256 768h256v256h-256v-256zM768 512h256v512h-256v-512zM1024 256h512v256h-512v-256zM1024 1024h512v256h-512v-256zM1536 512h256v512h-256v-512z" />
<glyph unicode="&#xdf;" d="M0 0v768h256v256h256v256h256v256h256v256h256v256h256v-256h256v-256h256v-256h-256v-256h-256v-256h-256v-256h-256v-256h-256v-256h-768zM256 512h256v-256h256v256h256v256h256v256h256v256h256v256h-256v256h-256v-256h-256v-256h-256v-256h-256v-256h-256v-256z " />
<glyph unicode="&#xe0;" d="M0 512v512h256v256h256v256h256v512h256v-512h256v-256h256v-256h256v-512h-256v256h-256v256h-256v-768h256v-256h-768v256h256v768h-256v-256h-256v-256h-256z" />
<glyph unicode="&#xe1;" d="M0 256v512h256v256h512v-512h256v768h1024v-1024h-256v-256h-256v256h-1024v-256h-256v256h-256z" />
<glyph unicode="&#xe2;" d="M0 0v256h256v256h-256v256h256v256h-256v256h256v256h-256v256h256v256h256v-256h512v256h256v-256h256v-256h-256v-256h256v-256h-256v-256h256v-256h-256v-256h256v-256h-1536zM512 256h512v256h-512v-256zM512 768h512v256h-512v-256zM512 1280h512v256h-512v-256z " />
<glyph unicode="&#xe3;" d="M0 768v256h256v256h256v256h256v-512h512v512h256v-256h256v-256h256v-256h-256v-256h-256v-256h-256v512h-512v-512h-256v256h-256v256h-256z" />
<glyph unicode="&#xe4;" d="M0 256v1024h256v256h1024v-256h-256v-256h-256v-256h256v-256h256v-256h256v256h256v-512h-512v256h-256v256h-256v256h-256v-256h-256v-256h-256z" />
<glyph unicode="&#xe5;" d="M0 256v1536h256v256h512v-256h256v-1024h-256v-256h-256v256h256v1024h-512v-1536h768v256h256v1024h256v-1024h-256v-256h-256v-256h-768v256h-256z" />
<glyph unicode="&#xe6;" d="M0 512v1280h256v256h1536v-256h256v-1280h-256v-256h-1536v256h-256zM256 512h1536v1280h-1536v-1280zM512 768v256h256v-256h-256zM512 1280v256h768v-256h-768zM1024 768v256h512v-256h-512z" />
<glyph unicode="&#xe7;" d="M0 1024v512h1280v-512h-256v256h-256v-512h256v-768h-256v768h-256v-768h-256v768h256v512h-256v-256h-256zM512 1792v256h256v-256h-256z" />
<glyph unicode="&#xe8;" d="M0 512v768h512v-256h256v768h256v-1792h-256v768h-256v-256h-512zM1280 0v768h768v-768h-768zM1280 1024v768h768v-768h-768zM1536 256h256v256h-256v-256zM1536 1280h256v256h-256v-256z" />
<glyph unicode="&#xe9;" d="M0 512v1536h1280v-1536h-256v-256h-256v-256h-256v256h-256v256h-256zM256 1536h256v256h-256v-256zM768 768h256v256h-256v-256z" />
<glyph unicode="&#xea;" d="M0 0v512h256v256h256v256h256v256h256v256h-256v256h256v-256h256v256h256v256h256v-256h256v-256h-256v-256h-256v-256h256v-256h-256v256h-256v-256h-256v-256h-256v-256h-256v-256h-512zM1280 1280h256v256h-256v-256z" />
<glyph unicode="&#xeb;" d="M0 512v256h768v256h256v256h256v768h256v-512h512v-256h-768v-256h-256v-256h-256v-768h-256v512h-512z" />
<glyph unicode="&#xec;" d="M0 0v1024h256v-512h256v256h256v256h256v256h1024v-256h-1024v-256h-256v-256h-256v-256h512v-256h-1024z" />
<glyph unicode="&#xed;" d="M0 512v512h256v512h256v256h256v256h512v-256h256v-256h256v-512h256v-512h-2048zM256 768h1536v256h-256v512h-256v256h-512v-256h-256v-512h-256v-256zM768 0v256h512v-256h-512z" />
<glyph unicode="&#xee;" d="M0 768v256h256v-256h-256zM256 256v256h256v-256h-256zM256 1280v256h256v-256h-256zM768 0v256h256v-256h-256zM768 768v512h256v-256h256v-256h-512zM768 1536v256h256v-256h-256zM1280 256v256h256v-256h-256zM1280 1280v256h256v-256h-256zM1536 768v256h256v-256 h-256z" />
<glyph unicode="&#xef;" d="M0 0v256h512v-256h-512zM0 512v1280h256v256h1280v-256h256v-1280h-512v1024h-768v-1024h-512zM1280 0v256h512v-256h-512z" />
<glyph unicode="&#xf0;" d="M0 768v256h256v256h256v256h256v-256h-256v-768h256v-256h-256v256h-256v256h-256zM768 768v256h256v-256h-256zM1280 768v256h256v-256h-256zM1792 512v768h256v-768h-256z" />
<glyph unicode="&#xf1;" d="M0 0v1536h256v256h768v-256h256v-1536h-1280zM256 1280v256h768v-256h-768zM512 256h256v768h-256v-768z" />
<glyph unicode="&#xf2;" d="M0 0v1280h1024v512h-768v-256h-256v256h256v256h768v-256h256v-1792h-1280zM512 256h256v768h-256v-768z" />
<glyph unicode="&#xf3;" d="M0 1536v256h256v256h1280v-512h-1536zM512 0v1280h512v-1280h-512z" />
<glyph unicode="&#xf4;" d="M0 0v256h512v768h-256v256h-256v768h1280v-768h-256v-256h-256v-768h512v-256h-1280zM256 1280h768v512h-768v-512z" />
<glyph unicode="&#xf5;" d="M0 512v768h256v-768h256v-256h1024v256h256v512h-256v256h-512v-256h256v-256h-256v256h-256v256h-256v256h256v256h256v256h256v-256h-256v-256h512v-256h256v-256h256v-512h-256v-256h-256v-256h-1024v256h-256v256h-256z" />
<glyph unicode="&#xf6;" d="M0 512v1024h768v256h256v256h512v-2048h-512v256h-256v256h-768zM256 768h256v512h-256v-512zM768 512h256v-256h256v1536h-256v-256h-256v-1024zM1792 256v256h256v-256h-256zM1792 768v512h256v-512h-256zM1792 1536v256h256v-256h-256z" />
<glyph unicode="&#xf7;" d="M0 512v1024h768v256h256v256h512v-2048h-512v256h-256v256h-768zM256 768h256v512h-256v-512zM768 512h256v-256h256v1536h-256v-256h-256v-1024z" />
<glyph unicode="&#xf8;" d="M0 0v256h256v256h256v768h256v256h256v-256h-256v-512h512v256h256v-256h-256v-256h-768v-256h-256v-256h-256z" />
<glyph unicode="&#xf9;" d="M0 256v1024h256v256h256v256h-256v256h256v-256h256v-256h256v-256h256v-1024h-256v-256h-768v256h-256zM256 256h768v256h-768v-256zM256 768h256v512h-256v-512zM768 768h256v512h-256v-512z" />
<glyph unicode="&#xfa;" d="M0 0v1792h256v256h512v-256h256v-1792h-1024zM256 256h512v1280h-512v-1280z" />
<glyph unicode="&#xfb;" d="M0 0v1792h256v256h512v-256h256v-1792h-1024zM256 512h512v1024h-512v-1024z" />
<glyph unicode="&#xfc;" d="M0 0v1792h256v256h512v-256h256v-1792h-1024zM256 768h512v768h-512v-768z" />
<glyph unicode="&#xfd;" d="M0 0v1792h256v256h512v-256h256v-1792h-1024z" />
<glyph unicode="&#xfe;" d="M0 512v1024h256v256h256v256h768v-256h256v-256h256v-1024h-256v-256h-256v-256h-768v256h-256v256h-256zM256 512h256v-256h768v256h256v1024h-256v256h-768v-256h-256v-1024zM768 512v256h256v-256h-256zM768 1024v512h256v-512h-256z" />
<glyph unicode="&#xff;" d="M0 256v256h256v256h256v256h256v-256h256v-256h256v256h256v256h-256v256h768v-768h-256v256h-256v-256h-256v-256h-256v256h-256v256h-256v-256h-256v-256h-256z" />
<glyph unicode="&#x152;" d="M0 768v256h256v256h256v256h256v256h256v-256h-256v-256h-256v-256h768v-256h-256v-256h-256v-256h-256v-256h-256v256h256v256h256v256h-768z" />
<glyph unicode="&#x153;" d="M0 768v256h256v256h256v256h256v256h256v-256h256v-256h256v-256h256v-256h-256v-256h-256v-256h-256v-256h-256v256h-256v256h-256v256h-256zM512 512h768v768h-768v-768z" />
<glyph unicode="&#x178;" d="M0 256v1536h256v256h1536v-256h256v-1536h-256v-256h-1536v256h-256zM256 256h256v256h-256v-256zM256 1536h256v256h-256v-256zM512 512h256v256h-256v-256zM512 1280h256v256h-256v-256zM768 768h512v512h-512v-512zM1280 512h256v256h-256v-256zM1280 1280h256v256 h-256v-256zM1536 256h256v256h-256v-256zM1536 1536h256v256h-256v-256z" />
<glyph unicode="&#x2c6;" d="M0 512v1024h256v256h256v256h1024v-256h256v-256h256v-1024h-256v-256h-256v-256h-1024v256h-256v256h-256zM1280 512h512v1024h-512v-1024z" />
<glyph unicode="&#x2dc;" d="M0 512v256h256v256h256v256h256v256h-256v256h1280v-1280h-256v256h-256v-256h-256v-256h-256v-256h-256v256h-256v256h-256zM768 1024h256v256h-256v-256zM1024 768h256v256h-256v-256z" />
<glyph unicode="&#x2000;" horiz-adv-x="1024" />
<glyph unicode="&#x2001;" horiz-adv-x="2048" />
<glyph unicode="&#x2002;" horiz-adv-x="1024" />
<glyph unicode="&#x2003;" horiz-adv-x="2048" />
<glyph unicode="&#x2004;" horiz-adv-x="682" />
<glyph unicode="&#x2005;" horiz-adv-x="512" />
<glyph unicode="&#x2006;" horiz-adv-x="341" />
<glyph unicode="&#x2007;" horiz-adv-x="341" />
<glyph unicode="&#x2008;" horiz-adv-x="256" />
<glyph unicode="&#x2009;" horiz-adv-x="409" />
<glyph unicode="&#x200a;" horiz-adv-x="113" />
<glyph unicode="&#x2010;" d="M0 512v768h1792v-768h-1792z" />
<glyph unicode="&#x2011;" d="M0 512v768h1792v-768h-1792z" />
<glyph unicode="&#x2012;" d="M0 512v768h1792v-768h-1792z" />
<glyph unicode="&#x2013;" d="M0 0v256h256v256h256v256h256v256h-256v256h-256v256h1280v-1280h-256v256h-256v256h-256v-256h-256v-256h-256v-256h-256z" />
<glyph unicode="&#x2014;" d="M0 0v512h256v256h512v256h-256v256h-256v256h1280v-1280h-256v256h-256v256h-256v-512h-256v-256h-512z" />
<glyph unicode="&#x2018;" d="M0 768v256h256v256h256v256h256v256h256v-256h256v-256h256v-256h256v-256h-256v-256h-256v-256h-256v-256h-256v256h-256v256h-256v256h-256zM512 512h256v256h-256v-256zM512 1024h256v256h-256v-256zM768 768h256v256h-256v-256zM1024 512h256v256h-256v-256z M1024 1024h256v256h-256v-256z" />
<glyph unicode="&#x2019;" d="M0 512v768h768v512h256v-256h256v-256h256v-256h256v-256h-256v-256h-256v-256h-256v-256h-256v512h-768z" />
<glyph unicode="&#x201a;" d="M0 1024v768h256v256h512v-256h512v256h512v-256h256v-768h-256v-256h-256v-256h256v-512h-1536v512h256v256h-256v256h-256zM512 1024h256v512h-256v-512zM1280 1024h256v512h-256v-512z" />
<glyph unicode="&#x201c;" d="M0 512v768h512v-768h-512zM768 0v1792h256v-256h256v-256h256v-256h256v-256h-256v-256h-256v-256h-256v-256h-256z" />
<glyph unicode="&#x201d;" d="M0 512v768h256v-768h-256zM512 0v1792h256v-256h256v-256h256v-256h256v-256h-256v-256h-256v-256h-256v-256h-256z" />
<glyph unicode="&#x201e;" d="M0 512v1024h256v256h256v256h1024v-256h256v-256h256v-1024h-256v-256h-256v-256h-1024v256h-256v256h-256zM256 512h256v-256h1024v256h256v1024h-256v256h-1024v-256h-256v-1024z" />
<glyph unicode="&#x2022;" d="M0 1536v256h1280v-1280h-256v256h-256v256h-256v256h-256v256h-256z" />
<glyph unicode="&#x2026;" d="M0 512v1024h256v256h256v256h1024v-256h256v-256h256v-1024h-256v-256h-256v-256h-1024v256h-256v256h-256zM512 512h256v-256h768v256h256v1024h-256v256h-768v-256h-256v-1024z" />
<glyph unicode="&#x202f;" horiz-adv-x="409" />
<glyph unicode="&#x2039;" d="M0 256v256h256v256h256v512h256v256h1024v-256h256v-512h-256v-256h256v-256h-256v-256h-1536v256h-256zM256 256h1536v256h-256v256h-1024v-256h-256v-256zM768 1024h768v-256h256v512h-1024v-256z" />
<glyph unicode="&#x203a;" d="M0 0v768h256v-256h256v256h256v256h-256v256h-256v-256h-256v768h768v-256h-256v-256h256v-256h256v256h256v256h-256v256h768v-768h-256v256h-256v-256h-256v-256h256v-256h256v256h256v-768h-768v256h256v256h-256v256h-256v-256h-256v-256h256v-256h-768z" />
<glyph unicode="&#x205f;" horiz-adv-x="512" />
<glyph unicode="&#x20ac;" d="M0 1024v256h256v-256h256v-256h256v512h-256v512h256v-512h256v768h256v-768h256v512h256v-512h-256v-512h256v256h256v256h256v-256h-256v-256h-256v-256h-256v-256h256v-256h-1280v256h256v256h-256v256h-256v256h-256z" />
<glyph unicode="&#x2122;" d="M0 0v768h512v-256h256v-512h-768zM0 1024v768h768v-512h-256v-256h-512zM1024 0v512h256v256h512v-768h-768zM1024 1280v512h768v-768h-512v256h-256z" />
<glyph unicode="&#x25fc;" horiz-adv-x="2048" d="M0 0v2048h2048v-2048h-2048z" />
</font>
</defs>
</svg>
