<?xml version="1.0" standalone="no"?>
<!DOCTYPE svg PUBLIC "-//W3C//DTD SVG 1.1//EN" "http://www.w3.org/Graphics/SVG/1.1/DTD/svg11.dtd" >
<svg xmlns="http://www.w3.org/2000/svg">
<metadata></metadata>
<defs>
<font id="zx_spectrum7_boldregular" horiz-adv-x="819" >
<font-face units-per-em="2048" ascent="1536" descent="-512" />
<missing-glyph horiz-adv-x="500" />
<glyph horiz-adv-x="0" />
<glyph unicode="&#xd;" />
<glyph unicode=" " />
<glyph unicode="!" d="M205 0v102h205v-102h-205zM205 205v409h205v-409h-205z" />
<glyph unicode="&#x22;" d="M205 512v205h205v-205h-205zM512 512v205h205v-205h-205z" />
<glyph unicode="#" d="M102 205v102h103v205h-103v102h103v103h205v-103h102v103h205v-103h102v-102h-102v-205h102v-102h-102v-103h-205v103h-102v-103h-205v103h-103zM410 307h102v205h-102v-205z" />
<glyph unicode="$" d="M102 102v103h205v102h-205v307h205v103h205v-103h205v-102h-205v-102h205v-308h-205v-102h-205v102h-205zM205 410h102v102h-102v-102zM512 205h102v102h-102v-102z" />
<glyph unicode="%" d="M102 0v102h103v103h102v102h103v103h-308v204h308v-204h102v102h102v102h205v-102h-102v-102h-103v-103h-102v-102h307v-205h-307v205h-102v-103h-103v-102h-205z" />
<glyph unicode="&#x26;" d="M102 102v103h103v102h102v103h-102v102h102v102h205v-102h102v-102h-102v-103h102v-102h103v102h102v-102h-102v-103h102v-102h-102v102h-103v-102h-409v102h-103zM307 102h205v103h-205v-103zM307 410h205v102h-205v-102z" />
<glyph unicode="'" d="M410 614v103h102v102h205v-102h-103v-103h-204z" />
<glyph unicode="(" d="M410 102v410h102v102h205v-102h-103v-410h103v-102h-205v102h-102z" />
<glyph unicode=")" d="M205 0v102h102v410h-102v102h205v-102h102v-410h-102v-102h-205z" />
<glyph unicode="*" d="M102 205v102h205v103h-102v102h102v-102h205v102h102v-102h-102v-103h205v-102h-205v-103h102v-102h-102v102h-205v-102h-102v102h102v103h-205z" />
<glyph unicode="+" d="M102 205v102h205v205h103v-205h204v-102h-204v-205h-103v205h-205z" />
<glyph unicode="," d="M307 0v102h103v205h204v-205h-102v-102h-205z" />
<glyph unicode="-" d="M102 205v102h615v-102h-615z" />
<glyph unicode="." d="M307 0v205h205v-205h-205z" />
<glyph unicode="/" d="M102 0v102h103v103h102v102h103v103h102v102h205v-102h-103v-103h-102v-102h-102v-103h-103v-102h-205z" />
<glyph unicode="0" d="M102 102v410h103v102h512v-102h102v-410h-102v-102h-512v102h-103zM307 307h103v103h102v102h-205v-205zM410 102h204v205h-102v-102h-102v-103z" />
<glyph unicode="1" d="M102 0v102h205v308h-205v102h103v102h307v-512h205v-102h-615z" />
<glyph unicode="2" d="M102 0v205h103v102h409v205h-307v-102h-205v102h103v102h512v-102h102v-205h-102v-102h-410v-103h512v-102h-717z" />
<glyph unicode="3" d="M102 102v103h205v-103h307v205h-204v103h204v102h-307v-102h-205v102h103v102h512v-102h102v-102h-102v-103h102v-205h-102v-102h-512v102h-103z" />
<glyph unicode="4" d="M102 102v205h103v103h102v102h103v102h204v-409h205v-103h-205v-102h-204v102h-308zM307 205h103v102h-103v-102z" />
<glyph unicode="5" d="M102 102v103h205v-103h307v205h-512v307h717v-102h-512v-102h410v-103h102v-205h-102v-102h-512v102h-103z" />
<glyph unicode="6" d="M102 102v410h103v102h512v-102h-410v-102h410v-103h102v-205h-102v-102h-512v102h-103zM307 102h307v205h-307v-205z" />
<glyph unicode="7" d="M102 512v102h717v-204h-102v-103h-103v-102h-102v-205h-205v205h103v102h102v103h102v102h-512z" />
<glyph unicode="8" d="M102 102v205h103v103h-103v102h103v102h512v-102h102v-102h-102v-103h102v-205h-102v-102h-512v102h-103zM307 102h307v205h-307v-205zM307 410h307v102h-307v-102z" />
<glyph unicode="9" d="M102 307v205h103v102h512v-102h102v-410h-102v-102h-512v102h409v103h-409v102h-103zM307 307h307v205h-307v-205z" />
<glyph unicode=":" d="M307 0v102h205v-102h-205zM307 307v103h205v-103h-205z" />
<glyph unicode=";" d="M205 0v102h102v205h205v-205h-102v-102h-205zM307 512v102h205v-102h-205z" />
<glyph unicode="&#x3c;" d="M307 205v102h103v103h102v102h205v-102h-103v-103h-102v-102h102v-103h103v-102h-205v102h-102v103h-103z" />
<glyph unicode="=" d="M102 205v102h615v-102h-615zM102 410v102h615v-102h-615z" />
<glyph unicode="&#x3e;" d="M205 0v102h102v103h103v102h-103v103h-102v102h205v-102h102v-103h102v-102h-102v-103h-102v-102h-205z" />
<glyph unicode="?" d="M102 410v102h103v102h512v-102h102v-102h-102v-103h-103v-102h-204v102h102v103h102v102h-307v-102h-205zM410 0v102h204v-102h-204z" />
<glyph unicode="@" d="M102 102v410h103v102h512v-102h102v-307h-409v205h102v-103h102v205h-307v-410h410v-102h-512v102h-103z" />
<glyph unicode="A" d="M102 0v512h103v102h512v-102h102v-512h-205v205h-307v-205h-205zM307 307h307v205h-307v-205z" />
<glyph unicode="B" d="M102 0v614h615v-102h102v-102h-102v-103h102v-205h-102v-102h-615zM307 102h307v205h-307v-205zM307 410h307v102h-307v-102z" />
<glyph unicode="C" d="M102 102v410h103v102h512v-102h102v-102h-205v102h-307v-410h307v103h205v-103h-102v-102h-512v102h-103z" />
<glyph unicode="D" d="M102 0v614h512v-102h103v-102h102v-205h-102v-103h-103v-102h-512zM307 102h205v103h102v205h-102v102h-205v-410z" />
<glyph unicode="E" d="M102 0v614h717v-102h-512v-102h410v-103h-410v-205h512v-102h-717z" />
<glyph unicode="F" d="M102 0v614h717v-102h-512v-102h410v-103h-410v-307h-205z" />
<glyph unicode="G" d="M102 102v410h103v102h512v-102h102v-102h-205v102h-307v-410h307v103h-204v102h409v-205h-102v-102h-512v102h-103z" />
<glyph unicode="H" d="M102 0v614h205v-204h307v204h205v-614h-205v307h-307v-307h-205z" />
<glyph unicode="I" d="M102 0v102h205v410h-205v102h615v-102h-205v-410h205v-102h-615z" />
<glyph unicode="J" d="M102 102v205h205v-205h307v512h205v-512h-102v-102h-512v102h-103z" />
<glyph unicode="K" d="M102 0v614h205v-204h103v102h102v102h205v-102h-103v-102h-102v-103h102v-102h103v-103h102v-102h-205v102h-102v103h-102v102h-103v-307h-205z" />
<glyph unicode="L" d="M102 0v614h205v-512h512v-102h-717z" />
<glyph unicode="M" d="M102 0v614h205v-102h103v-102h102v102h102v102h205v-614h-205v410h-102v-205h-102v205h-103v-410h-205z" />
<glyph unicode="N" d="M102 0v614h205v-102h103v-102h102v-103h102v307h205v-614h-205v102h-102v103h-102v102h-103v-307h-205z" />
<glyph unicode="O" d="M102 102v410h103v102h512v-102h102v-410h-102v-102h-512v102h-103zM307 102h307v410h-307v-410z" />
<glyph unicode="P" d="M102 0v614h615v-102h102v-205h-102v-102h-410v-205h-205zM307 307h307v205h-307v-205z" />
<glyph unicode="Q" d="M102 102v410h103v102h512v-102h102v-410h-102v-102h-512v102h-103zM307 102h205v103h-102v102h102v-102h102v307h-307v-410z" />
<glyph unicode="R" d="M102 0v614h615v-102h102v-205h-102v-205h102v-102h-205v102h-102v103h-205v-205h-205zM307 307h307v205h-307v-205z" />
<glyph unicode="S" d="M102 102v103h205v-103h307v205h-409v103h-103v102h103v102h512v-102h-410v-102h410v-103h102v-205h-102v-102h-512v102h-103z" />
<glyph unicode="T" d="M102 512v102h615v-102h-205v-512h-205v512h-205z" />
<glyph unicode="U" d="M102 102v512h205v-512h307v512h205v-512h-102v-102h-512v102h-103z" />
<glyph unicode="V" d="M102 205v409h205v-409h103v-103h102v103h102v409h205v-409h-102v-103h-103v-102h-307v102h-102v103h-103z" />
<glyph unicode="W" d="M102 102v512h205v-409h103v102h102v-102h102v409h205v-512h-102v-102h-205v102h-102v-102h-205v102h-103z" />
<glyph unicode="X" d="M102 0v102h103v103h102v205h-102v102h-103v102h205v-102h103v-102h102v102h102v102h205v-102h-102v-102h-103v-205h103v-103h102v-102h-205v102h-102v103h-102v-103h-103v-102h-205z" />
<glyph unicode="Y" d="M102 410v204h205v-204h205v204h205v-204h-103v-103h-102v-307h-205v307h-102v103h-103z" />
<glyph unicode="Z" d="M102 0v102h103v103h102v102h103v103h102v102h-410v102h717v-102h-102v-102h-103v-103h-102v-102h-102v-103h409v-102h-717z" />
<glyph unicode="[" d="M410 0v614h409v-102h-205v-410h205v-102h-409z" />
<glyph unicode="\" d="M102 410v102h205v-102h103v-103h102v-102h102v-103h103v-102h-205v102h-102v103h-103v102h-102v103h-103z" />
<glyph unicode="]" d="M102 0v102h205v410h-205v102h410v-614h-410z" />
<glyph unicode="^" d="M102 410v102h103v102h102v103h205v-103h102v-102h103v-102h-103v102h-102v-410h-205v410h-102v-102h-103z" />
<glyph unicode="_" d="M0 0v102h819v-102h-819z" />
<glyph unicode="`" d="M410 717v102h204v-102h103v-103h-205v103h-102z" />
<glyph unicode="a" d="M102 102v103h103v102h307v103h-307v102h409v-102h103v-410h-512v102h-103zM307 102h205v103h-205v-103z" />
<glyph unicode="b" d="M102 0v614h205v-204h307v-103h103v-205h-103v-102h-512zM307 102h205v205h-205v-205z" />
<glyph unicode="c" d="M205 102v308h102v102h410v-102h-307v-308h307v-102h-410v102h-102z" />
<glyph unicode="d" d="M102 102v205h103v103h307v204h205v-614h-512v102h-103zM307 102h205v205h-205v-205z" />
<glyph unicode="e" d="M102 102v308h103v102h409v-102h103v-103h-103v-102h-307v-103h410v-102h-512v102h-103zM307 307h205v103h-205v-103z" />
<glyph unicode="f" d="M307 0v512h103v102h307v-102h-205v-102h102v-103h-102v-307h-205z" />
<glyph unicode="g" d="M102 205v205h103v102h512v-512h-103v-102h-409v102h307v102h-307v103h-103zM307 205h205v205h-205v-205z" />
<glyph unicode="h" d="M102 0v614h205v-204h307v-103h103v-307h-205v307h-205v-307h-205z" />
<glyph unicode="i" d="M205 0v102h102v205h-102v103h307v-308h102v-102h-409zM307 512v102h205v-102h-205z" />
<glyph unicode="j" d="M102 0v102h205v-102h103v410h204v-410h-102v-102h-307v102h-103zM410 512v102h204v-102h-204z" />
<glyph unicode="k" d="M205 0v614h205v-307h102v103h102v102h205v-102h-102v-103h-103v-102h103v-103h102v-102h-205v102h-102v103h-102v-205h-205z" />
<glyph unicode="l" d="M307 102v512h205v-512h205v-102h-307v102h-103z" />
<glyph unicode="m" d="M102 0v512h615v-102h102v-410h-205v410h-102v-410h-102v410h-103v-410h-205z" />
<glyph unicode="n" d="M102 0v512h512v-102h103v-410h-205v410h-205v-410h-205z" />
<glyph unicode="o" d="M102 102v308h103v102h409v-102h103v-308h-103v-102h-409v102h-103zM307 102h205v308h-205v-308z" />
<glyph unicode="p" d="M102 -102v614h512v-102h103v-205h-103v-103h-307v-204h-205zM307 205h205v205h-205v-205z" />
<glyph unicode="q" d="M102 205v205h103v102h512v-512h102v-102h-307v204h-307v103h-103zM307 205h205v205h-205v-205z" />
<glyph unicode="r" d="M205 0v410h102v102h410v-102h-307v-410h-205z" />
<glyph unicode="s" d="M102 0v102h410v103h-307v102h-103v103h103v102h409v-102h-307v-103h307v-102h103v-103h-103v-102h-512z" />
<glyph unicode="t" d="M205 410v102h102v102h205v-102h102v-102h-102v-308h205v-102h-307v102h-103v308h-102z" />
<glyph unicode="u" d="M102 102v410h205v-410h205v410h205v-410h-103v-102h-409v102h-103z" />
<glyph unicode="v" d="M102 307v205h205v-205h205v205h205v-205h-103v-205h-102v-102h-205v102h-102v205h-103z" />
<glyph unicode="w" d="M102 102v410h205v-410h103v308h102v-308h102v410h205v-410h-102v-102h-512v102h-103z" />
<glyph unicode="x" d="M102 0v102h103v103h102v102h-102v103h-103v102h205v-102h205v102h205v-102h-103v-103h-102v-102h102v-103h103v-102h-205v102h-205v-102h-205z" />
<glyph unicode="y" d="M102 205v307h205v-307h205v307h205v-512h-103v-102h-409v102h307v102h-307v103h-103z" />
<glyph unicode="z" d="M102 0v102h103v103h102v102h103v103h-308v102h615v-102h-103v-103h-102v-102h-102v-103h307v-102h-615z" />
<glyph unicode="{" d="M102 307v103h205v204h410v-102h-205v-102h-102v-103h102v-205h205v-102h-410v307h-205z" />
<glyph unicode="|" d="M307 0v614h205v-614h-205z" />
<glyph unicode="}" d="M102 0v102h205v205h103v103h-103v102h-205v102h410v-204h205v-103h-205v-307h-410z" />
<glyph unicode="~" d="M205 614v103h102v102h205v-102h102v102h103v-102h-103v-103h-204v103h-103v-103h-102z" />
<glyph unicode="&#xa0;" />
<glyph unicode="&#xa1;" d="M205 0v410h205v-410h-205zM205 512v102h205v-102h-205z" />
<glyph unicode="&#xa2;" d="M102 102v308h103v102h205v102h204v-102h205v-102h-205v-308h205v-102h-205v-102h-204v102h-205v102h-103zM307 102h103v308h-103v-308z" />
<glyph unicode="&#xa3;" d="M205 0v102h102v205h-102v103h102v102h103v102h307v-102h-205v-102h102v-103h-102v-205h205v-102h-512z" />
<glyph unicode="&#xa4;" d="M102 102v103h103v307h-103v102h103v-102h307v102h102v-102h-102v-307h102v-103h-102v103h-307v-103h-103zM307 307h103v103h-103v-103z" />
<glyph unicode="&#xa5;" d="M102 0v102h205v103h-205v102h205v103h-102v102h-103v102h205v-102h205v102h205v-102h-103v-102h-102v-103h205v-102h-205v-103h205v-102h-205v-102h-205v102h-205z" />
<glyph unicode="&#xa6;" d="M307 0v205h205v-205h-205zM307 410v204h205v-204h-205z" />
<glyph unicode="&#xa7;" d="M102 -102v512h410v102h-410v102h615v-512h-410v-102h410v-102h-615zM307 205h205v102h-205v-102z" />
<glyph unicode="&#xa8;" d="M205 512v102h102v-102h-102zM512 512v102h102v-102h-102z" />
<glyph unicode="&#xa9;" d="M0 102v615h102v102h512v-102h103v-615h-103v-102h-512v102h-102zM102 205h103v409h-103v-409zM205 102h307v103h-307v-103zM205 614h307v103h-307v-103zM307 307h205v-102h102v409h-102v-102h-205v-205z" />
<glyph unicode="&#xaa;" d="M205 205v102h102v103h205v102h-205v102h307v-102h103v-410h-410v103h-102zM410 205h102v102h-102v-102z" />
<glyph unicode="&#xab;" d="M102 205v205h103v102h102v102h205v-102h102v102h205v-102h-102v-102h-103v-205h103v-103h102v-102h-205v102h-102v-102h-205v102h-102v103h-103zM307 205h103v205h-103v-205zM410 102h102v103h-102v-103zM410 410h102v102h-102v-102z" />
<glyph unicode="&#xac;" d="M102 512v102h717v-307h-205v205h-512z" />
<glyph unicode="&#xad;" d="M205 205v102h512v-102h-512z" />
<glyph unicode="&#xae;" d="M0 102v615h102v102h512v-102h103v-615h-103v-102h-512v102h-102zM102 205h103v409h-103v-409zM205 102h307v103h-102v102h-103v-102h-102v-103zM205 614h307v103h-307v-103zM307 410h103v102h-103v-102zM410 307h102v-102h102v409h-102v-204h-102v-103z" />
<glyph unicode="&#xb0;" d="M205 307v205h102v102h307v-102h103v-205h-103v-102h-307v102h-102zM410 307h102v205h-102v-205z" />
<glyph unicode="&#xb1;" d="M102 0h615v-102h-615v102zM102 307v103h205v204h205v-204h205v-103h-205v-205h-205v205h-205z" />
<glyph unicode="&#xb2;" d="M205 102v205h102v103h205v102h-307v102h409v-102h103v-102h-103v-103h-204v-102h307v-103h-512z" />
<glyph unicode="&#xb3;" d="M205 102v103h307v102h-205v103h205v102h-307v102h409v-102h103v-102h-103v-103h103v-102h-103v-103h-409z" />
<glyph unicode="&#xb4;" d="M410 614v103h102v102h205v-102h-103v-103h-204z" />
<glyph unicode="&#xb5;" d="M102 -102v716h205v-409h103v-103h102v103h102v409h205v-614h-205v102h-102v-102h-102v102h-103v-204h-205z" />
<glyph unicode="&#xb6;" d="M102 307v307h717v-102h-102v-512h-205v512h-102v-512h-205v307h-103z" />
<glyph unicode="&#xb7;" d="M307 205v205h205v-205h-205z" />
<glyph unicode="&#xb8;" d="M102 -102h205v102h205v-102h-102v-103h-308v103z" />
<glyph unicode="&#xb9;" d="M205 102v103h102v307h-102v102h307v-409h102v-103h-409z" />
<glyph unicode="&#xba;" d="M205 205v307h102v102h307v-102h103v-307h-103v-103h-307v103h-102zM410 205h102v307h-102v-307z" />
<glyph unicode="&#xbb;" d="M102 0v102h103v103h102v205h-102v102h-103v102h205v-102h103v102h204v-102h103v-102h102v-205h-102v-103h-103v-102h-204v102h-103v-102h-205zM410 102h102v103h-102v-103zM410 410h102v102h-102v-102zM512 205h102v205h-102v-205z" />
<glyph unicode="&#xbf;" d="M102 102v103h103v102h102v103h205v-103h-102v-102h-103v-103h307v103h205v-103h-102v-102h-512v102h-103zM307 512v102h205v-102h-205z" />
<glyph unicode="&#xc0;" d="M102 0v512h103v102h512v-102h102v-512h-205v205h-307v-205h-205zM205 819v103h205v-103h102v-102h-205v102h-102zM307 307h307v205h-307v-205z" />
<glyph unicode="&#xc1;" d="M102 0v512h103v102h512v-102h102v-512h-205v205h-307v-205h-205zM307 307h307v205h-307v-205zM410 717v102h102v103h205v-103h-103v-102h-204z" />
<glyph unicode="&#xc2;" d="M102 0v512h103v102h512v-102h102v-512h-205v205h-307v-205h-205zM205 717v102h102v103h307v-103h103v-102h-205v102h-102v-102h-205zM307 307h307v205h-307v-205z" />
<glyph unicode="&#xc3;" d="M102 0v512h103v102h512v-102h102v-512h-205v205h-307v-205h-205zM205 717v102h102v103h205v-103h102v103h103v-103h-103v-102h-204v102h-103v-102h-102zM307 307h307v205h-307v-205z" />
<glyph unicode="&#xc4;" d="M102 0v512h103v102h512v-102h102v-512h-205v205h-307v-205h-205zM205 717v102h205v-102h-205zM307 307h307v205h-307v-205zM512 717v102h205v-102h-205z" />
<glyph unicode="&#xc5;" d="M102 0v512h103v102h102v205h307v-205h103v-102h102v-512h-205v205h-307v-205h-205zM307 307h307v205h-307v-205zM410 614h102v103h-102v-103z" />
<glyph unicode="&#xc6;" d="M102 0v512h103v102h614v-102h-205v-102h205v-103h-205v-205h205v-102h-409v307h-205v-307h-103zM205 410h205v102h-205v-102z" />
<glyph unicode="&#xc7;" d="M102 -102h205v102h-102v102h-103v410h103v102h512v-102h102v-102h-205v102h-307v-410h307v103h205v-103h-102v-102h-205v-102h-102v-103h-308v103z" />
<glyph unicode="&#xc8;" d="M102 0v614h717v-102h-512v-102h410v-103h-410v-205h512v-102h-717zM205 819v103h205v-103h102v-102h-205v102h-102z" />
<glyph unicode="&#xc9;" d="M102 0v614h717v-102h-512v-102h410v-103h-410v-205h512v-102h-717zM410 717v102h102v103h205v-103h-103v-102h-204z" />
<glyph unicode="&#xca;" d="M102 0v614h717v-102h-512v-102h410v-103h-410v-205h512v-102h-717zM205 717v102h102v103h307v-103h103v-102h-205v102h-102v-102h-205z" />
<glyph unicode="&#xcb;" d="M102 0v614h717v-102h-512v-102h410v-103h-410v-205h512v-102h-717zM205 717v102h205v-102h-205zM512 717v102h205v-102h-205z" />
<glyph unicode="&#xcc;" d="M102 0v102h205v410h-205v102h615v-102h-205v-410h205v-102h-615zM205 819v103h205v-103h102v-102h-205v102h-102z" />
<glyph unicode="&#xcd;" d="M102 0v102h205v410h-205v102h615v-102h-205v-410h205v-102h-615zM307 717v102h103v103h204v-103h-102v-102h-205z" />
<glyph unicode="&#xce;" d="M102 0v102h205v410h-205v102h615v-102h-205v-410h205v-102h-615zM102 717v102h103v103h409v-103h103v-102h-205v102h-205v-102h-205z" />
<glyph unicode="&#xcf;" d="M102 0v102h205v410h-205v102h615v-102h-205v-410h205v-102h-615zM102 717v102h205v-102h-205zM512 717v102h205v-102h-205z" />
<glyph unicode="&#xd0;" d="M0 307v103h102v204h512v-102h103v-102h102v-205h-102v-103h-103v-102h-512v307h-102zM307 102h205v103h102v205h-102v-103h-205v-205zM307 410h205v102h-205v-102z" />
<glyph unicode="&#xd1;" d="M102 0v614h205v-102h103v-102h102v-103h102v307h205v-614h-205v102h-102v103h-102v102h-103v-307h-205zM205 717v102h102v103h205v-103h102v103h103v-103h-103v-102h-204v102h-103v-102h-102z" />
<glyph unicode="&#xd2;" d="M102 102v410h103v102h512v-102h102v-410h-102v-102h-512v102h-103zM205 819v103h205v-103h102v-102h-205v102h-102zM307 102h307v410h-307v-410z" />
<glyph unicode="&#xd3;" d="M102 102v410h103v102h512v-102h102v-410h-102v-102h-512v102h-103zM307 102h307v410h-307v-410zM410 717v102h102v103h205v-103h-103v-102h-204z" />
<glyph unicode="&#xd4;" d="M102 102v410h103v102h512v-102h102v-410h-102v-102h-512v102h-103zM205 717v102h102v103h307v-103h103v-102h-205v102h-102v-102h-205zM307 102h307v410h-307v-410z" />
<glyph unicode="&#xd5;" d="M102 102v410h103v102h512v-102h102v-410h-102v-102h-512v102h-103zM205 717v102h102v103h205v-103h102v103h103v-103h-103v-102h-204v102h-103v-102h-102zM307 102h307v410h-307v-410z" />
<glyph unicode="&#xd6;" d="M102 102v410h103v102h512v-102h102v-410h-102v-102h-512v102h-103zM205 717v102h205v-102h-205zM307 102h307v410h-307v-410zM512 717v102h205v-102h-205z" />
<glyph unicode="&#xd7;" d="M205 205v102h102v103h-102v102h102v-102h205v102h102v-102h-102v-103h102v-102h-102v102h-205v-102h-102z" />
<glyph unicode="&#xd8;" d="M102 102v410h103v102h512v-102h102v-410h-102v-102h-512v102h-103zM307 307h103v103h102v102h-205v-205zM410 102h204v205h-102v-102h-102v-103z" />
<glyph unicode="&#xd9;" d="M102 102v512h205v-512h307v512h205v-512h-102v-102h-512v102h-103zM205 819v103h205v-103h102v-102h-205v102h-102z" />
<glyph unicode="&#xda;" d="M102 102v512h205v-512h307v512h205v-512h-102v-102h-512v102h-103zM410 717v102h102v103h205v-103h-103v-102h-204z" />
<glyph unicode="&#xdb;" d="M102 102v512h205v-512h307v512h205v-512h-102v-102h-512v102h-103zM205 717v102h102v103h307v-103h103v-102h-205v102h-102v-102h-205z" />
<glyph unicode="&#xdc;" d="M102 102v512h205v-512h307v512h205v-512h-102v-102h-512v102h-103zM205 717v102h205v-102h-205zM512 717v102h205v-102h-205z" />
<glyph unicode="&#xdd;" d="M102 410v204h205v-204h205v204h205v-204h-103v-103h-102v-307h-205v307h-102v103h-103zM307 717v102h103v103h204v-103h-102v-102h-205z" />
<glyph unicode="&#xde;" d="M102 0v614h205v-102h410v-102h102v-205h-102v-103h-410v-102h-205zM307 205h307v205h-307v-205z" />
<glyph unicode="&#xdf;" d="M102 0v512h103v102h409v-102h103v-102h-103v-103h103v-205h-103v-102h-512zM307 102h205v205h-205v-205zM307 410h205v102h-205v-102z" />
<glyph unicode="&#xe0;" d="M102 102v103h103v102h307v103h-307v102h409v-102h103v-410h-512v102h-103zM205 717v102h205v-102h102v-103h-205v103h-102zM307 102h205v103h-205v-103z" />
<glyph unicode="&#xe1;" d="M102 102v103h103v102h307v103h-307v102h409v-102h103v-410h-512v102h-103zM307 102h205v103h-205v-103zM307 614v103h103v102h204v-102h-102v-103h-205z" />
<glyph unicode="&#xe2;" d="M102 102v103h103v102h307v103h-307v102h409v-102h103v-410h-512v102h-103zM205 614v103h102v102h205v-102h102v-103h-102v103h-205v-103h-102zM307 102h205v103h-205v-103z" />
<glyph unicode="&#xe3;" d="M102 102v103h103v102h307v103h-307v102h409v-102h103v-410h-512v102h-103zM205 614v103h102v102h205v-102h102v102h103v-102h-103v-103h-204v103h-103v-103h-102zM307 102h205v103h-205v-103z" />
<glyph unicode="&#xe4;" d="M102 102v103h103v102h307v103h-307v102h409v-102h103v-410h-512v102h-103zM205 614v103h102v-103h-102zM307 102h205v103h-205v-103zM512 614v103h102v-103h-102z" />
<glyph unicode="&#xe5;" d="M102 102v103h103v102h307v103h-307v102h409v-102h103v-410h-512v102h-103zM205 717v102h102v103h205v-103h102v-102h-102v-103h-205v103h-102zM307 102h205v103h-205v-103zM307 717h205v102h-205v-102z" />
<glyph unicode="&#xe6;" d="M0 102v103h102v102h205v103h-307v102h717v-102h102v-103h-102v-102h-205v-103h307v-102h-717v102h-102zM205 102h102v103h-102v-103zM512 307h102v103h-102v-103z" />
<glyph unicode="&#xe7;" d="M102 -102h205v102h-102v102h-103v308h103v102h512v-102h-410v-308h410v-102h-205v-102h-102v-103h-308v103z" />
<glyph unicode="&#xe8;" d="M102 102v308h103v102h409v-102h103v-103h-103v-102h-307v-103h410v-102h-512v102h-103zM205 717v102h205v-102h102v-103h-205v103h-102zM307 307h205v103h-205v-103z" />
<glyph unicode="&#xe9;" d="M102 102v308h103v102h409v-102h103v-103h-103v-102h-307v-103h410v-102h-512v102h-103zM307 307h205v103h-205v-103zM307 614v103h103v102h204v-102h-102v-103h-205z" />
<glyph unicode="&#xea;" d="M102 102v308h103v102h409v-102h103v-103h-103v-102h-307v-103h410v-102h-512v102h-103zM205 614v103h102v102h205v-102h102v-103h-102v103h-205v-103h-102zM307 307h205v103h-205v-103z" />
<glyph unicode="&#xeb;" d="M102 102v308h103v102h409v-102h103v-103h-103v-102h-307v-103h410v-102h-512v102h-103zM205 614v103h102v-103h-102zM307 307h205v103h-205v-103zM512 614v103h102v-103h-102z" />
<glyph unicode="&#xec;" d="M205 0v102h102v205h-102v103h409v-103h-102v-205h102v-102h-409zM205 614v103h205v-103h102v-102h-205v102h-102z" />
<glyph unicode="&#xed;" d="M205 0v102h102v205h-102v103h409v-103h-102v-205h102v-102h-409zM307 512v102h103v103h204v-103h-102v-102h-205z" />
<glyph unicode="&#xee;" d="M205 0v102h102v205h-102v103h409v-103h-102v-205h102v-102h-409zM205 512v102h102v103h205v-103h102v-102h-102v102h-205v-102h-102z" />
<glyph unicode="&#xef;" d="M205 0v102h102v205h-102v103h409v-103h-102v-205h102v-102h-409zM205 512v102h102v-102h-102zM512 512v102h102v-102h-102z" />
<glyph unicode="&#xf0;" d="M102 102v205h103v103h307v102h-205v102h307v-102h103v-410h-103v-102h-409v102h-103zM307 102h205v205h-205v-205z" />
<glyph unicode="&#xf1;" d="M102 0v512h512v-102h103v-410h-205v410h-205v-410h-205zM205 614v103h102v102h205v-102h102v102h103v-102h-103v-103h-204v103h-103v-103h-102z" />
<glyph unicode="&#xf2;" d="M102 102v308h103v102h409v-102h103v-308h-103v-102h-409v102h-103zM205 717v102h205v-102h102v-103h-205v103h-102zM307 102h205v308h-205v-308z" />
<glyph unicode="&#xf3;" d="M102 102v308h103v102h409v-102h103v-308h-103v-102h-409v102h-103zM307 102h205v308h-205v-308zM307 614v103h103v102h204v-102h-102v-103h-205z" />
<glyph unicode="&#xf4;" d="M102 102v308h103v102h409v-102h103v-308h-103v-102h-409v102h-103zM205 614v103h102v102h205v-102h102v-103h-102v103h-205v-103h-102zM307 102h205v308h-205v-308z" />
<glyph unicode="&#xf5;" d="M102 102v308h103v102h409v-102h103v-308h-103v-102h-409v102h-103zM205 614v103h102v102h205v-102h102v102h103v-102h-103v-103h-204v103h-103v-103h-102zM307 102h205v308h-205v-308z" />
<glyph unicode="&#xf6;" d="M102 102v308h103v102h409v-102h103v-308h-103v-102h-409v102h-103zM205 614v103h102v-103h-102zM307 102h205v308h-205v-308zM512 614v103h102v-103h-102z" />
<glyph unicode="&#xf7;" d="M102 205v102h615v-102h-615zM307 0v102h205v-102h-205zM307 410v102h205v-102h-205z" />
<glyph unicode="&#xf8;" d="M102 102v308h103v102h409v-102h103v-308h-103v-102h-409v102h-103zM205 205h102v102h103v103h-205v-205zM410 102h204v205h-102v-102h-102v-103z" />
<glyph unicode="&#xf9;" d="M102 102v410h205v-410h205v410h205v-410h-103v-102h-409v102h-103zM205 717v102h205v-102h102v-103h-205v103h-102z" />
<glyph unicode="&#xfa;" d="M102 102v410h205v-410h205v410h205v-410h-103v-102h-409v102h-103zM307 614v103h103v102h204v-102h-102v-103h-205z" />
<glyph unicode="&#xfb;" d="M102 102v410h205v-410h205v410h205v-410h-103v-102h-409v102h-103zM205 614v103h102v102h205v-102h102v-103h-102v103h-205v-103h-102z" />
<glyph unicode="&#xfc;" d="M102 102v410h205v-410h205v410h205v-410h-103v-102h-409v102h-103zM205 614v103h102v-103h-102zM512 614v103h102v-103h-102z" />
<glyph unicode="&#xfd;" d="M102 205v307h205v-307h205v307h205v-512h-103v-102h-409v102h307v102h-307v103h-103zM307 614v103h103v102h204v-102h-102v-103h-205z" />
<glyph unicode="&#xfe;" d="M102 -102v716h205v-102h307v-102h103v-308h-103v-102h-307v-102h-205zM307 102h205v308h-205v-308z" />
<glyph unicode="&#xff;" d="M102 205v307h205v-307h205v307h205v-512h-103v-102h-409v102h307v102h-307v103h-103zM205 614v103h102v-103h-102zM512 614v103h102v-103h-102z" />
<glyph unicode="&#x152;" d="M102 102v410h103v102h614v-102h-205v-102h205v-103h-205v-205h205v-102h-614v102h-103zM205 102h205v410h-205v-410z" />
<glyph unicode="&#x153;" d="M102 102v308h103v102h409v-102h103v-205h-205v-103h205v-102h-512v102h-103zM205 102h102v308h-102v-308zM512 307h102v103h-102v-103z" />
<glyph unicode="&#x178;" d="M102 410v204h205v-204h205v204h205v-204h-103v-103h-102v-307h-205v307h-102v103h-103zM102 717v102h205v-102h-205zM512 717v102h205v-102h-205z" />
<glyph unicode="&#x2c6;" d="M102 307v103h103v102h102v102h205v-102h102v-102h103v-103h-205v103h-205v-103h-205z" />
<glyph unicode="&#x2dc;" d="M102 205v102h103v103h307v-103h102v103h205v-103h-102v-102h-307v102h-103v-102h-205z" />
<glyph unicode="&#x2000;" horiz-adv-x="682" />
<glyph unicode="&#x2001;" horiz-adv-x="1365" />
<glyph unicode="&#x2002;" horiz-adv-x="682" />
<glyph unicode="&#x2003;" horiz-adv-x="1365" />
<glyph unicode="&#x2004;" horiz-adv-x="455" />
<glyph unicode="&#x2005;" horiz-adv-x="341" />
<glyph unicode="&#x2006;" horiz-adv-x="227" />
<glyph unicode="&#x2007;" horiz-adv-x="227" />
<glyph unicode="&#x2008;" horiz-adv-x="170" />
<glyph unicode="&#x2009;" horiz-adv-x="273" />
<glyph unicode="&#x200a;" horiz-adv-x="75" />
<glyph unicode="&#x2010;" d="M102 205v102h615v-102h-615z" />
<glyph unicode="&#x2011;" d="M102 205v102h615v-102h-615z" />
<glyph unicode="&#x2012;" d="M102 205v102h615v-102h-615z" />
<glyph unicode="&#x2013;" d="M102 205v102h615v-102h-615z" />
<glyph unicode="&#x2014;" d="M102 205v102h717v-102h-717z" />
<glyph unicode="&#x2018;" d="M205 512v205h205v-205h102v-102h-205v102h-102z" />
<glyph unicode="&#x2019;" d="M205 307v103h102v204h205v-204h-102v-103h-205z" />
<glyph unicode="&#x201a;" d="M307 0v102h103v205h204v-205h-102v-102h-205z" />
<glyph unicode="&#x201c;" d="M102 512v205h205v-205h103v205h204v-205h103v-102h-205v102h-102v-102h-205v102h-103z" />
<glyph unicode="&#x201d;" d="M102 307v103h103v204h205v-204h102v204h205v-204h-103v-103h-204v103h-103v-103h-205z" />
<glyph unicode="&#x201e;" d="M102 0v102h103v205h205v-205h102v205h205v-205h-103v-102h-204v102h-103v-102h-205z" />
<glyph unicode="&#x2022;" d="M205 205v205h102v102h205v-102h102v-205h-102v-103h-205v103h-102z" />
<glyph unicode="&#x2026;" d="M102 0v102h615v-102h-615z" />
<glyph unicode="&#x202f;" horiz-adv-x="273" />
<glyph unicode="&#x2039;" d="M307 205v205h103v102h102v102h205v-102h-103v-102h-102v-205h102v-103h103v-102h-205v102h-102v103h-103z" />
<glyph unicode="&#x203a;" d="M205 0v102h102v103h103v205h-103v102h-102v102h205v-102h102v-102h102v-205h-102v-103h-102v-102h-205z" />
<glyph unicode="&#x205f;" horiz-adv-x="341" />
<glyph unicode="&#x20ac;" d="M102 102v103h103v102h-103v103h103v102h102v102h512v-102h-409v-102h307v-103h-307v-102h307v-103h-307v-102h409v-102h-512v102h-102v102h-103z" />
<glyph unicode="&#x2122;" d="M0 410v102h410v-102h102v-103h102v103h103v102h102v-410h-102v205h-103v-205h-102v205h-102v-205h-103v308h-102v-308h-103v308h-102z" />
<glyph unicode="&#x25fc;" horiz-adv-x="512" d="M0 0v512h512v-512h-512z" />
</font>
</defs>
</svg>
