<?xml version="1.0" encoding="UTF-8" standalone="no"?>
<!-- Created with Inkscape (http://www.inkscape.org/) -->

<svg
   xmlns:dc="http://purl.org/dc/elements/1.1/"
   xmlns:cc="http://creativecommons.org/ns#"
   xmlns:rdf="http://www.w3.org/1999/02/22-rdf-syntax-ns#"
   xmlns:svg="http://www.w3.org/2000/svg"
   xmlns="http://www.w3.org/2000/svg"
   xmlns:xlink="http://www.w3.org/1999/xlink"
   xmlns:sodipodi="http://sodipodi.sourceforge.net/DTD/sodipodi-0.dtd"
   xmlns:inkscape="http://www.inkscape.org/namespaces/inkscape"
   width="210mm"
   height="297mm"
   viewBox="0 0 744.09448819 1052.3622047"
   id="svg2"
   version="1.1"
   inkscape:version="0.91 r13725"
   sodipodi:docname="logo.svg">
  <defs
     id="defs4">
    <linearGradient
       inkscape:collect="always"
       id="linearGradient4179">
      <stop
         style="stop-color:#8bcfba;stop-opacity:1;"
         offset="0"
         id="stop4181" />
      <stop
         style="stop-color:#5caa91;stop-opacity:1"
         offset="1"
         id="stop4183" />
    </linearGradient>
    <linearGradient
       inkscape:collect="always"
       xlink:href="#linearGradient4179"
       id="linearGradient4185"
       x1="262.87805"
       y1="245.99464"
       x2="262.45767"
       y2="292.96674"
       gradientUnits="userSpaceOnUse" />
    <linearGradient
       inkscape:collect="always"
       xlink:href="#linearGradient4179"
       id="linearGradient4341"
       gradientUnits="userSpaceOnUse"
       x1="262.87805"
       y1="245.99464"
       x2="262.45767"
       y2="292.96674" />
    <linearGradient
       inkscape:collect="always"
       xlink:href="#linearGradient4179"
       id="linearGradient4343"
       gradientUnits="userSpaceOnUse"
       x1="262.87805"
       y1="245.99464"
       x2="262.45767"
       y2="292.96674" />
    <linearGradient
       inkscape:collect="always"
       xlink:href="#linearGradient4179"
       id="linearGradient4345"
       gradientUnits="userSpaceOnUse"
       x1="262.87805"
       y1="245.99464"
       x2="262.45767"
       y2="292.96674" />
    <linearGradient
       inkscape:collect="always"
       xlink:href="#linearGradient4179"
       id="linearGradient4347"
       gradientUnits="userSpaceOnUse"
       x1="262.87805"
       y1="245.99464"
       x2="262.45767"
       y2="292.96674" />
    <linearGradient
       inkscape:collect="always"
       xlink:href="#linearGradient4179"
       id="linearGradient4349"
       gradientUnits="userSpaceOnUse"
       x1="262.87805"
       y1="245.99464"
       x2="262.45767"
       y2="292.96674" />
    <linearGradient
       inkscape:collect="always"
       xlink:href="#linearGradient4179"
       id="linearGradient4351"
       gradientUnits="userSpaceOnUse"
       x1="262.87805"
       y1="245.99464"
       x2="262.45767"
       y2="292.96674" />
    <linearGradient
       inkscape:collect="always"
       xlink:href="#linearGradient4179"
       id="linearGradient4353"
       gradientUnits="userSpaceOnUse"
       x1="262.87805"
       y1="245.99464"
       x2="262.45767"
       y2="292.96674" />
    <linearGradient
       inkscape:collect="always"
       xlink:href="#linearGradient4179"
       id="linearGradient4355"
       gradientUnits="userSpaceOnUse"
       x1="262.87805"
       y1="245.99464"
       x2="262.45767"
       y2="292.96674" />
    <linearGradient
       inkscape:collect="always"
       xlink:href="#linearGradient4179"
       id="linearGradient4357"
       gradientUnits="userSpaceOnUse"
       x1="262.87805"
       y1="245.99464"
       x2="262.45767"
       y2="292.96674" />
  </defs>
  <sodipodi:namedview
     id="base"
     pagecolor="#ffffff"
     bordercolor="#666666"
     borderopacity="1.0"
     inkscape:pageopacity="0.0"
     inkscape:pageshadow="2"
     inkscape:zoom="2"
     inkscape:cx="287.38705"
     inkscape:cy="629.12803"
     inkscape:document-units="px"
     inkscape:current-layer="layer1"
     showgrid="false"
     inkscape:window-width="1680"
     inkscape:window-height="918"
     inkscape:window-x="0"
     inkscape:window-y="0"
     inkscape:window-maximized="1" />
  <metadata
     id="metadata7">
    <rdf:RDF>
      <cc:Work
         rdf:about="">
        <dc:format>image/svg+xml</dc:format>
        <dc:type
           rdf:resource="http://purl.org/dc/dcmitype/StillImage" />
        <dc:title />
      </cc:Work>
    </rdf:RDF>
  </metadata>
  <g
     inkscape:label="Livello 1"
     inkscape:groupmode="layer"
     id="layer1">
    <text
       xml:space="preserve"
       style="font-style:normal;font-weight:normal;font-size:40px;line-height:125%;font-family:sans-serif;letter-spacing:0px;word-spacing:0px;fill:#000000;fill-opacity:1;stroke:none;stroke-width:1px;stroke-linecap:butt;stroke-linejoin:miter;stroke-opacity:1"
       x="196.42857"
       y="268.79077"
       id="text4140"
       sodipodi:linespacing="125%"><tspan
         sodipodi:role="line"
         id="tspan4142"
         x="196.42857"
         y="268.79077" /></text>
    <g
       id="g4308"
       transform="translate(110.22928,237.26924)">
      <g
         inkscape:export-ydpi="105.56"
         inkscape:export-xdpi="105.56"
         inkscape:export-filename="/Users/KesieV/Downloads/logo.png"
         id="g4265">
        <path
           style="fill:#ffffff;fill-opacity:1;fill-rule:nonzero;stroke:#6fc4a9;stroke-width:0.35355338;stroke-miterlimit:4;stroke-dasharray:none;stroke-opacity:0"
           d="m 150.04646,252.71639 c -1.96345,-0.0619 -3.27154,1.86663 -3.21676,3.6899 -0.88942,8.38451 -1.78056,16.77167 -2.47877,25.17407 -0.0316,1.90388 1.75331,3.2557 3.56536,3.21095 2.17544,0.12433 4.42358,0.79099 6.57271,0.22196 1.8292,-0.60403 2.13416,-2.67927 2.1735,-4.34192 0.77741,-8.14459 1.73041,-16.27762 2.35813,-24.43348 -0.0514,-1.89078 -1.85259,-3.1201 -3.63427,-3.08506 -1.77469,-0.1923 -3.55427,-0.39372 -5.3399,-0.43642 z"
           id="path4261"
           inkscape:connector-curvature="0" />
        <path
           style="fill:#ffffff;fill-opacity:1;fill-rule:nonzero;stroke:#6fc4a9;stroke-width:0.70710677;stroke-miterlimit:4;stroke-dasharray:none;stroke-opacity:0"
           d="m 377.91992,235.9707 c -2.47176,-0.26762 -4.0349,2.54526 -5.03515,3.66602 -8.32286,-2.88445 -16.91134,-2.43937 -25.53321,-3.56055 -5.45628,-1.45137 -7.84384,4.67388 -7.36523,8.82422 -0.61277,1.86862 0.30728,4.73825 -2.81641,3.34766 -9.05894,-0.30492 -18.52842,-3.06845 -27.37109,-1.76172 -4.72696,0.85438 -12.37396,-3.23448 -14.97071,2.83398 -1.79489,9.52236 -2.00353,19.42824 -3.29101,29.02344 -3.97392,-0.8282 -11.20872,0.89066 -8.55931,-5.38436 0.21716,-7.50392 2.67835,-15.48977 1.18626,-22.88322 -3.34977,-4.68242 -10.21946,-2.91633 -15.13672,-4.17773 -3.02268,-0.62608 -6.14625,1.37401 -7.12695,3.66211 -8.00597,-2.89445 -16.83754,-2.27279 -25.17578,-3.59766 -2.49636,-0.45389 -5.46651,0.15341 -6.64649,2.64258 -3.74446,-0.94087 -8.68464,-0.81969 -11.58593,0.61523 -4.36519,-3.80228 -10.90512,-2.40311 -16.24219,-3.29687 -2.32825,2.6e-4 -4.63038,1.53107 -5.21289,3.7207 -7.17389,-2.47279 -15.34031,-3.36937 -22.80664,-1.8125 -1.86593,0.47746 -2.07348,-3.48332 -3.85352,-4.43164 -6.81975,-7.48281 -18.06345,-5.40499 -27.0664,-7.04492 -4.04068,-1.12436 -10.13147,-0.57644 -10.47071,4.71094 -1.5907,18.0554 -4.43804,36.20115 -4.95507,54.24023 2.54602,5.68802 10.38575,3.12218 15.14394,4.58601 6.84234,0.44046 14.57018,2.68025 20.75645,-1.38679 5.52631,0.42505 11.55071,2.74986 16.80664,0.53906 1.40334,-0.2754 3.28344,2.62126 5.51172,1.8418 4.98662,-0.0304 11.50309,3.17712 15.64453,-0.74024 2.74078,-1.84598 7.20525,0.85753 10.59179,-0.66601 1.99749,-1.77489 3.87923,2.14608 6.57227,1.55859 5.00671,-0.50017 11.01206,2.98696 15.32812,-0.46094 1.75695,-2.96817 6.41054,0.37547 9.48047,-0.80859 2.18062,-1.34123 2.95445,-0.82965 4.81641,0.57227 5.45667,1.04465 11.1857,1.9159 16.76953,1.51562 2.03705,-1.85609 3.05659,-3.70076 6.38672,-2.12695 8.55932,0.42797 17.39408,2.72251 25.89648,1.68359 1.95423,-1.64167 3.44886,-2.74811 6.18946,-1.63867 4.07993,0.64008 7.90041,-1.25913 11.95312,-0.10547 8.96417,0.37886 18.13604,2.83888 26.99414,1.90235 1.83407,-0.90852 2.37048,-3.44377 4.91211,-1.94922 3.07526,0.87259 6.9993,-0.13461 9.33008,-0.34571 4.67827,3.13598 10.51916,1.94684 15.90039,2.73828 3.52716,1.14164 4.06647,-4.15523 7.39258,-2.44335 4.34682,1.17098 10.51693,0.005 10.63281,-5.51563 -0.0108,-5.01397 2.42935,-10.86629 -0.0508,-15.30664 3.6664,-4.20516 1.62179,-10.66137 3.125,-15.65234 0.20863,-7.57603 2.82895,-15.52902 1.30859,-22.96289 -3.52394,-5.03061 -10.99109,-2.96545 -16.16406,-4.13282 l -0.99947,-0.0326 c -0.0647,-0.001 -0.12936,-0.0104 -0.19389,0.001 z m -232.53125,13.96485 c 5.08255,1.02358 10.95816,-0.15107 15.29102,2.55078 1.69262,6.69138 -1.00034,14.10366 -0.99962,20.95609 -1.314,4.29079 0.48591,10.67443 -3.0414,13.90524 -4.92541,0.79341 -10.05094,-0.67774 -15.02929,-0.89454 1.26404,-12.13722 2.21871,-24.6234 3.77929,-36.51757 z m 63.94141,9.88086 c 2.97727,1.97922 5.20988,8.07216 9.98828,6.08203 2.40279,-0.68199 4.75279,-4.63136 6.5332,-4.25 -0.84568,1.66074 0.91195,6.80463 -2.13281,4.90429 -2.82353,-0.74697 -5.15951,1.29912 -7.07422,3.03711 -1.77334,-2.48288 -4.46796,-5.72052 -7.91211,-4.72656 0.22645,-1.62251 0.23522,-3.6011 0.59766,-5.04687 z m -27.07813,0.60742 c 3.84586,0.58648 11.92651,-0.61706 10.58203,5.74414 -0.66185,3.95774 -0.51924,8.89292 -1.35156,12.40039 -5.31627,-1.27924 -11.05363,-1.89549 -16.50195,-1.60352 1.16829,-5.17826 -0.1907,-11.67209 2.84961,-16.08593 1.24088,-1.16563 2.92814,-0.39898 4.42187,-0.45508 z m 198.12696,25.96484 c 3.69714,3.09365 -4.07574,3.88423 -1.49024,0.39063 0.39722,-0.34551 0.97467,-0.52863 1.49024,-0.39063 z"
           id="path4199"
           inkscape:connector-curvature="0" />
        <path
           style="fill:#ffffff;fill-opacity:1;fill-rule:nonzero;stroke:#6fc4a9;stroke-width:0.35355338;stroke-miterlimit:4;stroke-dasharray:none;stroke-opacity:0"
           d="m 180.58705,262.6801 c -1.84449,0.56794 -2.27152,2.57386 -2.3416,4.26958 -0.0685,1.77243 -0.54739,3.54772 -0.37013,5.314 0.41807,2.0075 2.59667,2.65473 4.388,2.69067 1.95256,0.0708 3.97696,0.71525 5.88602,0.16646 2.12479,-0.84613 1.90271,-3.39245 2.12057,-5.26943 0.0347,-1.89716 0.91219,-4.22468 -0.67476,-5.72414 -1.34498,-1.35371 -3.46603,-0.93672 -5.18905,-1.28893 -1.27464,-0.0899 -2.54385,-0.39234 -3.81905,-0.15821 z"
           id="path4263"
           inkscape:connector-curvature="0" />
        <g
           style="font-style:normal;font-weight:normal;font-size:40px;line-height:125%;font-family:sans-serif;letter-spacing:-0.07px;word-spacing:0px;fill:url(#linearGradient4185);fill-opacity:1;stroke:#000000;stroke-width:3.5999999;stroke-linecap:butt;stroke-linejoin:miter;stroke-miterlimit:4;stroke-dasharray:none;stroke-opacity:1"
           id="text4136">
          <path
             d="m 155.18001,284.39805 2.9796,-29.85166 -9.95056,-0.9932 -2.97959,29.85166 9.95055,0.9932 z m -20.8943,7.96416 4.96598,-49.75278 19.90111,1.9864 q 4.12016,0.41125 6.70163,3.65241 2.6631,3.21006 2.25573,7.29134 l -2.97959,29.85167 q -0.41513,4.15902 -3.65629,6.7405 -3.20618,2.62422 -7.28746,2.21686 l -19.90111,-1.9864 z"
             style="font-style:normal;font-variant:normal;font-weight:normal;font-stretch:normal;font-family:'KenVector Bold';-inkscape-font-specification:'KenVector Bold, ';letter-spacing:-7.48999834px;fill:url(#linearGradient4341);fill-opacity:1;stroke:#000000;stroke-width:3.5999999;stroke-miterlimit:4;stroke-dasharray:none;stroke-opacity:1"
             id="path4149"
             inkscape:connector-curvature="0" />
          <path
             d="m 188.68321,274.4475 0.9932,-9.95056 -9.95055,-0.9932 -0.9932,9.95056 9.95055,0.9932 z m -21.8875,17.91471 2.97959,-29.85166 q 0.41125,-4.12016 3.61354,-6.70551 3.21006,-2.6631 7.33021,-2.25185 l 9.95056,0.9932 q 4.12015,0.41124 6.70163,3.65241 2.66309,3.21006 2.25573,7.29134 l -2.9796,29.85167 -9.95055,-0.9932 0.9932,-9.95056 -9.95056,-0.9932 -0.9932,9.95056 -9.95055,-0.9932 z"
             style="font-style:normal;font-variant:normal;font-weight:normal;font-stretch:normal;font-family:'KenVector Bold';-inkscape-font-specification:'KenVector Bold, ';letter-spacing:-7.48999834px;fill:url(#linearGradient4343);fill-opacity:1;stroke:#000000;stroke-width:3.5999999;stroke-miterlimit:4;stroke-dasharray:none;stroke-opacity:1"
             id="path4151"
             inkscape:connector-curvature="0" />
          <path
             d="m 199.30571,292.36221 3.97279,-39.80222 9.95056,0.9932 -0.008,0.0777 4.48643,5.39413 5.47188,-4.47867 9.95056,0.99319 -3.97279,39.80223 -9.95056,-0.9932 1.9864,-19.90111 -5.47188,4.47868 -4.47868,-5.47188 -1.98639,19.90111 -9.95056,-0.9932 z"
             style="font-style:normal;font-variant:normal;font-weight:normal;font-stretch:normal;font-family:'KenVector Bold';-inkscape-font-specification:'KenVector Bold, ';letter-spacing:-7.48999834px;fill:url(#linearGradient4345);fill-opacity:1;stroke:#000000;stroke-width:3.5999999;stroke-miterlimit:4;stroke-dasharray:none;stroke-opacity:1"
             id="path4153"
             inkscape:connector-curvature="0" />
          <path
             d="m 231.81571,292.36221 3.97279,-39.80222 19.90111,1.9864 q 4.12015,0.41124 6.70163,3.65241 2.6631,3.21006 2.25573,7.29134 l -2.97959,29.85167 -9.95056,-0.9932 2.9796,-29.85167 -9.95056,-0.9932 -2.97959,29.85167 -9.95056,-0.9932 z"
             style="font-style:normal;font-variant:normal;font-weight:normal;font-stretch:normal;font-family:'KenVector Bold';-inkscape-font-specification:'KenVector Bold, ';letter-spacing:-7.48999834px;fill:url(#linearGradient4347);fill-opacity:1;stroke:#000000;stroke-width:3.5999999;stroke-miterlimit:4;stroke-dasharray:none;stroke-opacity:1"
             id="path4155"
             inkscape:connector-curvature="0" />
          <path
             d="m 264.32571,292.36221 3.97279,-39.80222 9.95056,0.9932 -2.97959,29.85166 19.90111,1.9864 -0.9932,9.95056 -29.85167,-2.9796 z"
             style="font-style:normal;font-variant:normal;font-weight:normal;font-stretch:normal;font-family:'KenVector Bold';-inkscape-font-specification:'KenVector Bold, ';letter-spacing:-7.48999834px;fill:url(#linearGradient4349);fill-opacity:1;stroke:#000000;stroke-width:3.5999999;stroke-miterlimit:4;stroke-dasharray:none;stroke-opacity:1"
             id="path4157"
             inkscape:connector-curvature="0" />
          <path
             d="m 296.83571,292.36221 3.97279,-39.80222 9.95055,0.9932 -3.97279,39.80222 -9.95055,-0.9932 z"
             style="font-style:normal;font-variant:normal;font-weight:normal;font-stretch:normal;font-family:'KenVector Bold';-inkscape-font-specification:'KenVector Bold, ';letter-spacing:-7.48999834px;fill:url(#linearGradient4351);fill-opacity:1;stroke:#000000;stroke-width:3.5999999;stroke-miterlimit:4;stroke-dasharray:none;stroke-opacity:1"
             id="path4159"
             inkscape:connector-curvature="0" />
          <path
             d="m 309.34572,292.36221 3.97279,-39.80222 29.85167,2.97959 -0.9932,9.95056 -19.90111,-1.9864 -0.4966,4.97528 19.90111,1.9864 -0.9932,9.95055 -19.90111,-1.98639 -0.4966,4.97527 19.90111,1.9864 -0.99319,9.95056 -29.85167,-2.9796 z"
             style="font-style:normal;font-variant:normal;font-weight:normal;font-stretch:normal;font-family:'KenVector Bold';-inkscape-font-specification:'KenVector Bold, ';letter-spacing:-7.48999834px;fill:url(#linearGradient4353);fill-opacity:1;stroke:#000000;stroke-width:3.5999999;stroke-miterlimit:4;stroke-dasharray:none;stroke-opacity:1"
             id="path4161"
             inkscape:connector-curvature="0" />
          <path
             d="m 341.85571,292.36221 4.96599,-49.75278 19.90111,1.9864 q 4.12015,0.41125 6.70163,3.65241 2.6631,3.21006 2.25573,7.29134 l -3.97279,39.80223 -9.95056,-0.9932 3.97279,-39.80222 -9.95055,-0.9932 -3.97279,39.80222 -9.95056,-0.9932 z"
             style="font-style:normal;font-variant:normal;font-weight:normal;font-stretch:normal;font-family:'KenVector Bold';-inkscape-font-specification:'KenVector Bold, ';letter-spacing:-7.48999834px;fill:url(#linearGradient4355);fill-opacity:1;stroke:#000000;stroke-width:3.5999999;stroke-miterlimit:4;stroke-dasharray:none;stroke-opacity:1"
             id="path4163"
             inkscape:connector-curvature="0" />
          <path
             d="m 374.36572,292.36221 0.9932,-9.95055 9.95056,0.99319 -0.9932,9.95056 -9.95056,-0.9932 z m 1.9864,-19.90111 2.97959,-29.85167 9.95056,0.9932 -2.9796,29.85167 -9.95055,-0.9932 z"
             style="font-style:normal;font-variant:normal;font-weight:normal;font-stretch:normal;font-family:'KenVector Bold';-inkscape-font-specification:'KenVector Bold, ';letter-spacing:-7.48999834px;fill:url(#linearGradient4357);fill-opacity:1;stroke:#000000;stroke-width:3.5999999;stroke-miterlimit:4;stroke-dasharray:none;stroke-opacity:1"
             id="path4165"
             inkscape:connector-curvature="0" />
        </g>
      </g>
      <g
         inkscape:export-ydpi="105.56"
         inkscape:export-xdpi="105.56"
         inkscape:export-filename="/Users/KesieV/Downloads/logo.png"
         transform="translate(-0.70710678,20.506097)"
         id="g4241">
        <path
           style="fill:#ffffff;fill-opacity:1;fill-rule:nonzero;stroke:#6fc4a9;stroke-width:0.70710677;stroke-miterlimit:4;stroke-dasharray:none;stroke-opacity:0"
           d="m 175.84862,303.35044 c -3.56795,-0.45762 -7.04648,2.52919 -6.61462,6.22171 0.14028,3.45479 -0.50253,7.03723 0.42675,10.38839 1.6742,2.01846 4.79605,1.61425 7.0103,0.89355 2.43927,1.03063 7.09096,1.03264 7.36868,-2.48937 -0.3374,-4.05201 0.76758,-8.42964 -0.90183,-12.25974 -1.38729,-2.78496 -4.5737,-2.9083 -7.28928,-2.75454 z"
           id="path4213"
           inkscape:connector-curvature="0" />
        <path
           style="fill:#ffffff;fill-opacity:1;fill-rule:nonzero;stroke:#6fc4a9;stroke-width:0.70710677;stroke-miterlimit:4;stroke-dasharray:none;stroke-opacity:0"
           d="m 182.22608,303.78198 c -2.49414,2.23506 -0.99437,5.96476 -1.40385,8.90443 0.35857,2.79444 -1.17321,6.99685 2.04272,8.43824 1.99515,0.8276 4.55405,-0.41582 6.09729,-0.0517 2.56362,0.60397 6.89344,0.74731 7.10353,-2.79736 -0.39777,-3.9571 0.50126,-8.20391 -1.03373,-11.96143 -1.78089,-3.46808 -6.05033,-3.04005 -9.32705,-2.99139 -1.20677,-0.0748 -2.34426,0.008 -3.47891,0.45921 z"
           id="path4215"
           inkscape:connector-curvature="0" />
        <path
           style="fill:#ffffff;fill-opacity:1;fill-rule:nonzero;stroke:#6fc4a9;stroke-width:0.70710677;stroke-miterlimit:4;stroke-dasharray:none;stroke-opacity:0"
           d="m 194.60045,303.78198 c -2.49415,2.23506 -0.99437,5.96476 -1.40385,8.90443 0.35857,2.79444 -1.17321,6.99685 2.04272,8.43824 3.09334,0.24335 6.44998,0.60948 9.46641,-0.3583 2.7247,-1.30068 4.03219,-4.32627 3.67985,-7.24508 0.009,-3.22282 0.51459,-7.37428 -2.75385,-9.29459 -2.98378,-1.52605 -6.57316,-0.74041 -9.77522,-0.80614 -0.41869,0.12048 -0.83737,0.24096 -1.25606,0.36144 z"
           id="path4217"
           inkscape:connector-curvature="0" />
        <path
           style="fill:#ffffff;fill-opacity:1;fill-rule:nonzero;stroke:#6fc4a9;stroke-width:0.70710677;stroke-miterlimit:4;stroke-dasharray:none;stroke-opacity:0"
           d="m 210.51036,303.78198 c -2.00479,1.7471 -2.02887,5.71956 0.1671,7.37766 2.23194,0.34503 0.89731,2.94314 1.25747,4.53198 -0.36095,2.39024 0.27959,5.8318 3.35323,5.65133 2.32961,0.36089 5.58728,-0.35663 5.4606,-3.28963 0.16723,-2.06742 -0.14042,-4.53095 0.3026,-6.36818 3.53557,-0.71109 3.91355,-6.28273 1.19531,-8.06544 -3.42715,-0.57754 -7.022,-0.26432 -10.48026,-0.19916 -0.41868,0.12048 -0.83737,0.24096 -1.25605,0.36144 z"
           id="path4219"
           inkscape:connector-curvature="0" />
        <path
           style="fill:#ffffff;fill-opacity:1;fill-rule:nonzero;stroke:#6fc4a9;stroke-width:0.70710677;stroke-miterlimit:4;stroke-dasharray:none;stroke-opacity:0"
           d="m 222.88472,303.78198 c -2.49414,2.23506 -0.99437,5.96476 -1.40385,8.90443 0.35857,2.79444 -1.17321,6.99685 2.04272,8.43824 1.96067,0.78528 4.49023,-0.33433 6.01926,-0.0786 2.56006,0.79191 6.90096,0.50026 6.77621,-3.05631 -0.24989,-4.40737 0.53423,-8.96056 -0.4592,-13.26308 -1.59902,-1.93672 -4.8031,-1.76241 -6.8135,-0.71816 -1.65376,-1.14992 -4.31047,-0.77909 -6.16164,-0.22649 z"
           id="path4221"
           inkscape:connector-curvature="0" />
        <path
           style="fill:#ffffff;fill-opacity:1;fill-rule:nonzero;stroke:#6fc4a9;stroke-width:0.70710677;stroke-miterlimit:4;stroke-dasharray:none;stroke-opacity:0"
           d="m 235.25909,303.78198 c -2.49415,2.23506 -0.99437,5.96476 -1.40385,8.90443 0.35857,2.79444 -1.17321,6.99685 2.04272,8.43824 3.55416,0.36978 7.2799,0.33617 10.82888,0.0228 3.03516,-0.68636 2.32865,-4.48592 2.17372,-6.75894 0.43596,-2.31358 -0.26583,-4.54509 0.14642,-6.84239 0.51044,-2.61956 -1.8279,-4.80343 -4.41389,-4.22331 -3.10562,0.20387 -6.37753,-0.46751 -9.374,0.45921 z"
           id="path4223"
           inkscape:connector-curvature="0" />
        <path
           style="fill:#ffffff;fill-opacity:1;fill-rule:nonzero;stroke:#6fc4a9;stroke-width:0.70710677;stroke-miterlimit:4;stroke-dasharray:none;stroke-opacity:0"
           d="m 250.81544,300.6 c -2.49415,2.23506 -0.99437,5.96476 -1.40385,8.90443 0.22547,3.46801 -0.50351,7.07061 0.4592,10.43466 2.23507,2.49415 5.96476,0.99437 8.90444,1.40386 2.42849,0.3353 6.00141,-0.17916 5.8281,-3.35324 0.37396,-2.3566 -0.37697,-5.65867 -3.35323,-5.47455 -2.73838,0.6723 -3.54356,-0.5886 -3.01073,-3.18751 -0.40385,-2.94001 1.1637,-6.89472 -1.69802,-8.88993 -1.85909,-0.46147 -3.9095,-0.48821 -5.72591,0.16228 z"
           id="path4225"
           inkscape:connector-curvature="0" />
        <path
           style="fill:#ffffff;fill-opacity:1;fill-rule:nonzero;stroke:#6fc4a9;stroke-width:0.70710677;stroke-miterlimit:4;stroke-dasharray:none;stroke-opacity:0"
           d="m 268.596,303.32691 c -3.60523,-0.52304 -6.66988,2.7563 -6.41506,6.27903 0.16233,3.53063 -1.04307,8.14316 2.3858,10.52443 2.517,1.71934 5.94239,1.40748 8.77047,0.76373 3.21771,-1.20323 3.91927,-4.8875 3.63882,-7.93838 0.10212,-3.25307 0.29296,-7.61501 -3.30599,-9.12403 -1.60191,-0.66578 -3.3832,-0.46857 -5.07404,-0.50478 z"
           id="path4227"
           inkscape:connector-curvature="0" />
        <path
           style="fill:#ffffff;fill-opacity:1;fill-rule:nonzero;stroke:#6fc4a9;stroke-width:0.70710677;stroke-miterlimit:4;stroke-dasharray:none;stroke-opacity:0"
           d="m 282.13875,303.32622 c -3.03546,-0.26851 -6.84747,0.89975 -7.29687,4.38973 -0.59402,3.56121 -0.14884,7.07233 -0.328,10.62732 0.20879,3.19008 3.7651,3.20367 6.18166,2.99968 2.90393,0.21782 6.22563,-0.13653 7.92249,-2.84017 2.0884,-3.11963 0.51516,-7.06124 1.08759,-10.44018 0.53846,-2.53421 -1.26131,-5.29394 -4.06033,-4.73983 -1.16885,0.001 -2.3377,-0.003 -3.50654,0.003 z"
           id="path4229"
           inkscape:connector-curvature="0" />
        <path
           style="fill:#ffffff;fill-opacity:1;fill-rule:nonzero;stroke:#6fc4a9;stroke-width:0.70710677;stroke-miterlimit:4;stroke-dasharray:none;stroke-opacity:0"
           d="m 288.64566,303.78198 c -2.00479,1.7471 -2.02887,5.71956 0.1671,7.37766 2.23194,0.34503 0.8973,2.94314 1.25747,4.53198 -0.36095,2.39024 0.27959,5.8318 3.35323,5.65133 2.32961,0.36089 5.58728,-0.35663 5.4606,-3.28963 0.16723,-2.06742 -0.14043,-4.53095 0.3026,-6.36818 3.53557,-0.71109 3.91354,-6.28273 1.19531,-8.06544 -3.42716,-0.57754 -7.022,-0.26432 -10.48026,-0.19916 -0.41868,0.12048 -0.83737,0.24096 -1.25605,0.36144 z"
           id="path4231"
           inkscape:connector-curvature="0" />
        <path
           style="fill:#ffffff;fill-opacity:1;fill-rule:nonzero;stroke:#6fc4a9;stroke-width:0.70710677;stroke-miterlimit:4;stroke-dasharray:none;stroke-opacity:0"
           d="m 304.202,300.6 c -2.49414,2.23506 -0.99437,5.96476 -1.40385,8.90443 0.22547,3.46801 -0.5035,7.07061 0.4592,10.43466 2.29057,2.51268 6.08227,0.98816 9.08122,1.40386 2.46817,0.47858 5.72113,-0.69337 5.29777,-3.70679 0.48357,-2.43653 -0.79774,-5.5359 -3.70678,-5.121 -2.92727,0.97904 -2.35404,-1.54242 -2.30363,-3.54106 -0.36662,-2.83279 1.09956,-6.64179 -1.69802,-8.53638 -1.85909,-0.46147 -3.90949,-0.48821 -5.72591,0.16228 z"
           id="path4233"
           inkscape:connector-curvature="0" />
        <path
           style="fill:#ffffff;fill-opacity:1;fill-rule:nonzero;stroke:#6fc4a9;stroke-width:0.70710677;stroke-miterlimit:4;stroke-dasharray:none;stroke-opacity:0"
           d="m 321.82926,303.3283 c -3.64672,-0.43931 -7.03182,2.78257 -6.63603,6.46892 0.088,3.48047 -0.83861,7.91201 2.53357,10.23026 2.4494,1.85817 5.95277,1.53859 8.76219,0.79895 2.92965,-1.10901 4.02213,-4.31868 3.80237,-7.22802 0.23543,-3.4159 0.35962,-7.89463 -3.27964,-9.6362 -1.60728,-0.77337 -3.45272,-0.6142 -5.18246,-0.63391 z"
           id="path4235"
           inkscape:connector-curvature="0" />
        <path
           style="fill:#ffffff;fill-opacity:1;fill-rule:nonzero;stroke:#6fc4a9;stroke-width:0.70710677;stroke-miterlimit:4;stroke-dasharray:none;stroke-opacity:0"
           d="m 334.35072,303.3276 c -3.71823,-0.4615 -7.00389,2.94152 -6.60634,6.62706 0.18795,3.40346 -0.99977,7.94637 2.43896,10.15292 2.52567,1.70513 5.99762,1.50761 8.80086,0.69122 2.76183,-1.28041 4.11456,-4.33115 3.75167,-7.27753 0.0598,-3.3234 0.46148,-7.67563 -3.05423,-9.47344 -1.62172,-0.9006 -3.5502,-0.68949 -5.33092,-0.72023 z"
           id="path4237"
           inkscape:connector-curvature="0" />
        <path
           style="fill:#ffffff;fill-opacity:1;fill-rule:nonzero;stroke:#6fc4a9;stroke-width:0.70710677;stroke-miterlimit:4;stroke-dasharray:none;stroke-opacity:0"
           d="m 341.67866,303.78198 c -2.41463,2.03242 -1.91095,7.38936 1.65867,7.93768 0.35429,2.79881 -0.57446,6.02215 0.90242,8.50261 1.72172,1.69169 4.91642,1.43282 6.87654,0.39783 2.15256,-2.20583 0.7847,-5.68093 1.16828,-8.46402 0.21423,-1.01586 2.33433,-1.07577 2.51167,-2.54197 0.89675,-2.45941 0.27128,-6.44768 -3.03647,-6.29134 -3.33419,0.2258 -6.85912,-0.49866 -10.08111,0.45921 z"
           id="path4239"
           inkscape:connector-curvature="0" />
        <text
           xml:space="preserve"
           style="font-style:normal;font-weight:normal;font-size:40px;line-height:125%;font-family:sans-serif;letter-spacing:0px;word-spacing:0px;fill:#000000;fill-opacity:1;stroke:none;stroke-width:1px;stroke-linecap:butt;stroke-linejoin:miter;stroke-opacity:1"
           x="171.4341"
           y="318.27652"
           id="text4144"
           sodipodi:linespacing="125%"><tspan
             sodipodi:role="line"
             id="tspan4146"
             x="171.4341"
             y="318.27652"
             style="font-style:normal;font-variant:normal;font-weight:normal;font-stretch:normal;font-size:12.5px;font-family:'KenVector Bold';-inkscape-font-specification:'KenVector Bold, '">and the Lost Loot</tspan></text>
      </g>
    </g>
  </g>
</svg>
